<svg width="243" height="175" viewBox="0 0 243 175" fill="none" xmlns="http://www.w3.org/2000/svg">
<g clip-path="url(#clip0_123_684)" filter="url(#filter0_f_123_684)">
<path d="M152.882 53.3124V127.188L171.743 112.148V63.575L152.882 53.3124ZM144.11 111.052L128.924 117.692V59.7334L144.11 64.2337V111.052ZM108.529 109.35L120.152 106.275V69.2819L108.585 67.4165L108.529 109.35Z" fill="#00E3A5"/>
</g>
<g filter="url(#filter1_b_123_684)">
<rect width="242.191" height="174.408" rx="11.4241" fill="url(#paint0_linear_123_684)"/>
<rect x="0.380803" y="0.380803" width="241.429" height="173.646" rx="11.0433" stroke="url(#paint1_linear_123_684)" stroke-width="0.761606"/>
</g>
<path d="M69.8903 137.049V124.863H77.197V126.172H71.3659V130.29H76.6496V131.599H71.3659V137.049H69.8903ZM82.2233 137.263C81.6441 137.263 81.1186 137.154 80.6465 136.936C80.1745 136.714 79.7996 136.394 79.522 135.978C79.2443 135.557 79.1055 135.05 79.1055 134.455C79.1055 133.931 79.2086 133.507 79.4149 133.181C79.6211 132.852 79.8968 132.594 80.2419 132.408C80.587 132.221 80.9678 132.083 81.3843 131.991C81.8048 131.896 82.2272 131.821 82.6517 131.765C83.207 131.694 83.6572 131.64 84.0023 131.605C84.3514 131.565 84.6053 131.5 84.7639 131.408C84.9266 131.317 85.0079 131.158 85.0079 130.932V130.885C85.0079 130.298 84.8472 129.841 84.5259 129.516C84.2086 129.191 83.7267 129.028 83.0801 129.028C82.4097 129.028 81.8841 129.175 81.5033 129.469C81.1225 129.762 80.8548 130.075 80.7001 130.409L79.3673 129.933C79.6053 129.377 79.9226 128.945 80.3193 128.636C80.7199 128.322 81.1562 128.104 81.6283 127.981C82.1043 127.854 82.5723 127.791 83.0325 127.791C83.326 127.791 83.6632 127.826 84.044 127.898C84.4288 127.965 84.7996 128.106 85.1566 128.32C85.5176 128.534 85.8171 128.858 86.0551 129.29C86.2931 129.722 86.4121 130.302 86.4121 131.028V137.049H85.0079V135.811H84.9365C84.8413 136.01 84.6826 136.222 84.4605 136.448C84.2384 136.674 83.9428 136.866 83.5739 137.025C83.205 137.184 82.7548 137.263 82.2233 137.263ZM82.4375 136.002C82.9928 136.002 83.4609 135.893 83.8417 135.674C84.2265 135.456 84.516 135.175 84.7104 134.83C84.9087 134.484 85.0079 134.122 85.0079 133.741V132.456C84.9484 132.527 84.8175 132.592 84.6152 132.652C84.4169 132.707 84.1868 132.757 83.925 132.801C83.6672 132.84 83.4153 132.876 83.1693 132.908C82.9274 132.935 82.731 132.959 82.5803 132.979C82.2153 133.027 81.8742 133.104 81.5569 133.211C81.2435 133.314 80.9896 133.471 80.7953 133.681C80.6049 133.887 80.5097 134.169 80.5097 134.526C80.5097 135.014 80.6901 135.383 81.0511 135.633C81.4161 135.879 81.8782 136.002 82.4375 136.002ZM95.4487 129.956L94.1873 130.313C94.108 130.103 93.991 129.899 93.8363 129.701C93.6855 129.498 93.4793 129.332 93.2175 129.201C92.9557 129.07 92.6205 129.004 92.2119 129.004C91.6526 129.004 91.1865 129.133 90.8137 129.391C90.4448 129.645 90.2603 129.968 90.2603 130.361C90.2603 130.71 90.3872 130.986 90.6411 131.188C90.895 131.39 91.2916 131.559 91.8311 131.694L93.1877 132.027C94.0049 132.225 94.6138 132.529 95.0144 132.937C95.415 133.342 95.6153 133.864 95.6153 134.502C95.6153 135.026 95.4646 135.494 95.1631 135.907C94.8656 136.319 94.4491 136.644 93.9136 136.882C93.3781 137.12 92.7554 137.239 92.0453 137.239C91.1131 137.239 90.3416 137.037 89.7307 136.632C89.1199 136.228 88.7331 135.637 88.5705 134.859L89.9033 134.526C90.0302 135.018 90.2702 135.387 90.6233 135.633C90.9803 135.879 91.4463 136.002 92.0215 136.002C92.676 136.002 93.1957 135.863 93.5804 135.585C93.9692 135.304 94.1635 134.966 94.1635 134.574C94.1635 134.256 94.0525 133.991 93.8303 133.776C93.6082 133.558 93.2671 133.396 92.8069 133.289L91.2837 132.932C90.4467 132.733 89.8319 132.426 89.4392 132.009C89.0505 131.589 88.8561 131.063 88.8561 130.432C88.8561 129.917 89.0009 129.461 89.2904 129.064C89.584 128.667 89.9826 128.356 90.4864 128.13C90.9941 127.904 91.5693 127.791 92.2119 127.791C93.1163 127.791 93.8264 127.989 94.342 128.386C94.8617 128.782 95.2306 129.306 95.4487 129.956ZM101.704 127.91V129.1H96.9675V127.91H101.704ZM98.3479 125.72H99.7521V134.431C99.7521 134.828 99.8096 135.125 99.9247 135.323C100.044 135.518 100.194 135.649 100.377 135.716C100.563 135.78 100.76 135.811 100.966 135.811C101.121 135.811 101.248 135.803 101.347 135.788C101.446 135.768 101.525 135.752 101.585 135.74L101.87 137.001C101.775 137.037 101.642 137.073 101.472 137.108C101.301 137.148 101.085 137.168 100.823 137.168C100.426 137.168 100.038 137.083 99.6569 136.912C99.2801 136.742 98.9667 136.482 98.7168 136.133C98.4709 135.784 98.3479 135.343 98.3479 134.812V125.72ZM111.979 137.216C111.178 137.216 110.488 137.069 109.909 136.775C109.33 136.482 108.883 136.079 108.57 135.567C108.257 135.056 108.1 134.471 108.1 133.812C108.1 133.304 108.207 132.854 108.421 132.461C108.64 132.065 108.939 131.698 109.32 131.361C109.705 131.02 110.147 130.678 110.647 130.337L112.408 129.028C112.753 128.802 113.029 128.56 113.235 128.302C113.445 128.045 113.55 127.707 113.55 127.291C113.55 126.981 113.413 126.682 113.14 126.392C112.87 126.103 112.515 125.958 112.075 125.958C111.765 125.958 111.492 126.037 111.254 126.196C111.02 126.351 110.835 126.549 110.7 126.791C110.569 127.029 110.504 127.275 110.504 127.529C110.504 127.814 110.581 128.104 110.736 128.398C110.895 128.687 111.095 128.985 111.337 129.29C111.583 129.592 111.837 129.901 112.098 130.218L117.692 137.049H116.002L111.384 131.48C110.956 130.964 110.567 130.496 110.218 130.075C109.869 129.655 109.592 129.241 109.385 128.832C109.179 128.423 109.076 127.981 109.076 127.505C109.076 126.958 109.197 126.478 109.439 126.065C109.685 125.649 110.028 125.325 110.468 125.095C110.912 124.861 111.432 124.744 112.027 124.744C112.638 124.744 113.164 124.863 113.604 125.101C114.044 125.335 114.383 125.647 114.621 126.035C114.859 126.42 114.978 126.839 114.978 127.291C114.978 127.874 114.834 128.38 114.544 128.808C114.254 129.237 113.86 129.635 113.36 130.004L110.932 131.813C110.385 132.218 110.014 132.61 109.82 132.991C109.625 133.372 109.528 133.646 109.528 133.812C109.528 134.193 109.627 134.548 109.826 134.877C110.024 135.206 110.304 135.472 110.665 135.674C111.025 135.877 111.448 135.978 111.932 135.978C112.392 135.978 112.84 135.881 113.277 135.686C113.713 135.488 114.108 135.202 114.461 134.83C114.818 134.457 115.099 134.008 115.306 133.485C115.516 132.961 115.621 132.372 115.621 131.718H116.978C116.978 132.527 116.884 133.187 116.698 133.699C116.511 134.211 116.301 134.611 116.067 134.901C115.833 135.191 115.645 135.407 115.502 135.55C115.454 135.609 115.411 135.669 115.371 135.728C115.331 135.788 115.288 135.847 115.24 135.907C114.847 136.347 114.352 136.676 113.753 136.894C113.154 137.108 112.563 137.216 111.979 137.216ZM130.813 127.91C130.741 127.307 130.452 126.839 129.944 126.505C129.436 126.172 128.814 126.006 128.076 126.006C127.536 126.006 127.064 126.093 126.66 126.267C126.259 126.442 125.946 126.682 125.72 126.987C125.497 127.293 125.386 127.64 125.386 128.029C125.386 128.354 125.464 128.634 125.618 128.868C125.777 129.098 125.979 129.29 126.225 129.445C126.471 129.596 126.729 129.72 126.999 129.82C127.269 129.915 127.517 129.992 127.743 130.052L128.98 130.385C129.298 130.468 129.651 130.583 130.039 130.73C130.432 130.877 130.807 131.077 131.164 131.331C131.525 131.581 131.822 131.902 132.056 132.295C132.29 132.688 132.407 133.17 132.407 133.741C132.407 134.399 132.235 134.994 131.89 135.526C131.549 136.057 131.049 136.48 130.39 136.793C129.736 137.106 128.941 137.263 128.004 137.263C127.132 137.263 126.376 137.122 125.737 136.841C125.103 136.559 124.603 136.166 124.238 135.663C123.877 135.159 123.673 134.574 123.625 133.907H125.148C125.188 134.367 125.343 134.748 125.613 135.05C125.886 135.347 126.231 135.569 126.648 135.716C127.068 135.859 127.52 135.93 128.004 135.93C128.568 135.93 129.073 135.839 129.522 135.657C129.97 135.47 130.325 135.212 130.587 134.883C130.849 134.55 130.979 134.161 130.979 133.717C130.979 133.312 130.866 132.983 130.64 132.729C130.414 132.475 130.117 132.269 129.748 132.11C129.379 131.952 128.98 131.813 128.552 131.694L127.052 131.266C126.1 130.992 125.347 130.601 124.791 130.093C124.236 129.586 123.958 128.921 123.958 128.1C123.958 127.418 124.143 126.823 124.512 126.315C124.885 125.803 125.384 125.407 126.011 125.125C126.642 124.839 127.346 124.697 128.123 124.697C128.909 124.697 129.607 124.837 130.218 125.119C130.829 125.397 131.313 125.778 131.67 126.262C132.031 126.745 132.221 127.295 132.241 127.91H130.813ZM138.475 137.239C137.594 137.239 136.835 137.045 136.196 136.656C135.561 136.264 135.072 135.716 134.726 135.014C134.385 134.308 134.215 133.487 134.215 132.551C134.215 131.615 134.385 130.79 134.726 130.075C135.072 129.358 135.552 128.798 136.166 128.398C136.785 127.993 137.507 127.791 138.332 127.791C138.808 127.791 139.278 127.87 139.742 128.029C140.206 128.187 140.629 128.445 141.01 128.802C141.391 129.155 141.694 129.623 141.92 130.206C142.146 130.79 142.259 131.507 142.259 132.36V132.955H135.214V131.742H140.831C140.831 131.226 140.728 130.766 140.522 130.361C140.32 129.956 140.03 129.637 139.653 129.403C139.28 129.169 138.84 129.052 138.332 129.052C137.773 129.052 137.289 129.191 136.88 129.469C136.476 129.742 136.164 130.099 135.946 130.54C135.728 130.98 135.619 131.452 135.619 131.956V132.765C135.619 133.455 135.738 134.04 135.976 134.52C136.218 134.996 136.553 135.359 136.982 135.609C137.41 135.855 137.908 135.978 138.475 135.978C138.844 135.978 139.177 135.926 139.475 135.823C139.776 135.716 140.036 135.557 140.254 135.347C140.472 135.133 140.641 134.867 140.76 134.55L142.116 134.931C141.974 135.391 141.734 135.795 141.396 136.145C141.059 136.49 140.643 136.759 140.147 136.954C139.651 137.144 139.094 137.239 138.475 137.239ZM148.108 137.239C147.251 137.239 146.514 137.037 145.895 136.632C145.276 136.228 144.8 135.671 144.467 134.96C144.134 134.25 143.967 133.439 143.967 132.527C143.967 131.599 144.137 130.78 144.479 130.07C144.824 129.356 145.304 128.798 145.919 128.398C146.537 127.993 147.259 127.791 148.084 127.791C148.727 127.791 149.306 127.91 149.822 128.148C150.337 128.386 150.76 128.719 151.089 129.147C151.418 129.576 151.623 130.075 151.702 130.647H150.298C150.191 130.23 149.953 129.861 149.584 129.54C149.219 129.215 148.727 129.052 148.108 129.052C147.561 129.052 147.081 129.195 146.668 129.48C146.26 129.762 145.94 130.161 145.71 130.676C145.484 131.188 145.371 131.789 145.371 132.479C145.371 133.185 145.482 133.8 145.704 134.324C145.93 134.847 146.248 135.254 146.656 135.544C147.069 135.833 147.553 135.978 148.108 135.978C148.473 135.978 148.804 135.914 149.102 135.788C149.399 135.661 149.651 135.478 149.857 135.24C150.064 135.002 150.21 134.717 150.298 134.383H151.702C151.623 134.923 151.426 135.409 151.113 135.841C150.804 136.269 150.393 136.611 149.881 136.864C149.374 137.114 148.782 137.239 148.108 137.239ZM159.514 133.312V127.91H160.919V137.049H159.514V135.502H159.419C159.205 135.966 158.872 136.361 158.42 136.686C157.967 137.007 157.396 137.168 156.706 137.168C156.135 137.168 155.627 137.043 155.183 136.793C154.738 136.539 154.389 136.158 154.136 135.651C153.882 135.139 153.755 134.494 153.755 133.717V127.91H155.159V133.622C155.159 134.288 155.345 134.82 155.718 135.216C156.095 135.613 156.575 135.811 157.158 135.811C157.507 135.811 157.862 135.722 158.223 135.544C158.588 135.365 158.894 135.091 159.14 134.722C159.389 134.354 159.514 133.884 159.514 133.312ZM163.491 137.049V127.91H164.847V129.29H164.942C165.109 128.838 165.41 128.471 165.847 128.189C166.283 127.908 166.775 127.767 167.322 127.767C167.425 127.767 167.554 127.769 167.709 127.773C167.864 127.777 167.981 127.783 168.06 127.791V129.219C168.013 129.207 167.903 129.189 167.733 129.165C167.566 129.137 167.39 129.123 167.203 129.123C166.759 129.123 166.362 129.217 166.013 129.403C165.668 129.586 165.395 129.839 165.192 130.165C164.994 130.486 164.895 130.853 164.895 131.266V137.049H163.491ZM173.278 137.239C172.398 137.239 171.638 137.045 170.999 136.656C170.365 136.264 169.875 135.716 169.53 135.014C169.189 134.308 169.018 133.487 169.018 132.551C169.018 131.615 169.189 130.79 169.53 130.075C169.875 129.358 170.355 128.798 170.97 128.398C171.589 127.993 172.31 127.791 173.136 127.791C173.612 127.791 174.082 127.87 174.546 128.029C175.01 128.187 175.432 128.445 175.813 128.802C176.194 129.155 176.497 129.623 176.723 130.206C176.95 130.79 177.063 131.507 177.063 132.36V132.955H170.018V131.742H175.635C175.635 131.226 175.531 130.766 175.325 130.361C175.123 129.956 174.833 129.637 174.456 129.403C174.084 129.169 173.643 129.052 173.136 129.052C172.576 129.052 172.092 129.191 171.684 129.469C171.279 129.742 170.968 130.099 170.75 130.54C170.531 130.98 170.422 131.452 170.422 131.956V132.765C170.422 133.455 170.541 134.04 170.779 134.52C171.021 134.996 171.356 135.359 171.785 135.609C172.213 135.855 172.711 135.978 173.278 135.978C173.647 135.978 173.98 135.926 174.278 135.823C174.579 135.716 174.839 135.557 175.057 135.347C175.276 135.133 175.444 134.867 175.563 134.55L176.92 134.931C176.777 135.391 176.537 135.795 176.2 136.145C175.863 136.49 175.446 136.759 174.95 136.954C174.454 137.144 173.897 137.239 173.278 137.239Z" fill="#BDF3FF"/>
<g clip-path="url(#clip1_123_684)">
<path d="M112.718 60.9285H124.903V58.8975C124.903 57.2816 124.262 55.7319 123.119 54.5892C121.976 53.4466 120.427 52.8047 118.811 52.8047C117.195 52.8047 115.645 53.4466 114.502 54.5892C113.36 55.7319 112.718 57.2816 112.718 58.8975V60.9285Z" fill="url(#paint2_linear_123_684)"/>
<path d="M109.672 69.0523H127.95V67.0214H109.672V69.0523Z" fill="url(#paint3_linear_123_684)"/>
<path d="M127.95 74.1296H109.672V72.0986H127.95V74.1296Z" fill="url(#paint4_linear_123_684)"/>
<path d="M109.672 79.2071H127.95V77.1761H109.672V79.2071Z" fill="url(#paint5_linear_123_684)"/>
<path fill-rule="evenodd" clip-rule="evenodd" d="M94.4395 42.6499H143.182V91.3927H94.4395V42.6499ZM105.61 60.9284C105.071 60.9284 104.554 61.1424 104.174 61.5233C103.793 61.9042 103.579 62.4208 103.579 62.9594V83.2689C103.579 83.8075 103.793 84.3241 104.174 84.705C104.554 85.0859 105.071 85.2998 105.61 85.2998H132.012C132.551 85.2998 133.067 85.0859 133.448 84.705C133.829 84.3241 134.043 83.8075 134.043 83.2689V62.9594C134.043 62.4208 133.829 61.9042 133.448 61.5233C133.067 61.1424 132.551 60.9284 132.012 60.9284H128.966V58.8975C128.966 53.289 124.419 48.7428 118.811 48.7428C113.202 48.7428 108.656 53.289 108.656 58.8975V60.9284H105.61Z" fill="url(#paint6_linear_123_684)"/>
</g>
<defs>
<filter id="filter0_f_123_684" x="57.5019" y="7.61602" width="165.269" height="165.268" filterUnits="userSpaceOnUse" color-interpolation-filters="sRGB">
<feFlood flood-opacity="0" result="BackgroundImageFix"/>
<feBlend mode="normal" in="SourceGraphic" in2="BackgroundImageFix" result="shape"/>
<feGaussianBlur stdDeviation="22.8482" result="effect1_foregroundBlur_123_684"/>
</filter>
<filter id="filter1_b_123_684" x="-38.0803" y="-38.0803" width="318.351" height="250.568" filterUnits="userSpaceOnUse" color-interpolation-filters="sRGB">
<feFlood flood-opacity="0" result="BackgroundImageFix"/>
<feGaussianBlur in="BackgroundImageFix" stdDeviation="19.0402"/>
<feComposite in2="SourceAlpha" operator="in" result="effect1_backgroundBlur_123_684"/>
<feBlend mode="normal" in="SourceGraphic" in2="effect1_backgroundBlur_123_684" result="shape"/>
</filter>
<linearGradient id="paint0_linear_123_684" x1="121.095" y1="-52.8201" x2="121.095" y2="252.747" gradientUnits="userSpaceOnUse">
<stop stop-color="white" stop-opacity="0.03"/>
<stop offset="1" stop-color="white" stop-opacity="0"/>
</linearGradient>
<linearGradient id="paint1_linear_123_684" x1="268.108" y1="174.408" x2="19.1085" y2="-65.7671" gradientUnits="userSpaceOnUse">
<stop stop-color="#F5FBF2" stop-opacity="0.44"/>
<stop offset="1" stop-color="#F5FBF2" stop-opacity="0"/>
</linearGradient>
<linearGradient id="paint2_linear_123_684" x1="118.811" y1="52.8047" x2="133.71" y2="59.1298" gradientUnits="userSpaceOnUse">
<stop stop-color="#00DD9C"/>
<stop offset="0.609375" stop-color="#253FE0" stop-opacity="0.619792"/>
<stop offset="1" stop-color="#060ED0" stop-opacity="0.28"/>
</linearGradient>
<linearGradient id="paint3_linear_123_684" x1="118.811" y1="67.0214" x2="122.334" y2="75.9936" gradientUnits="userSpaceOnUse">
<stop stop-color="#00DD9C"/>
<stop offset="0.609375" stop-color="#253FE0" stop-opacity="0.619792"/>
<stop offset="1" stop-color="#060ED0" stop-opacity="0.28"/>
</linearGradient>
<linearGradient id="paint4_linear_123_684" x1="118.811" y1="72.0986" x2="122.334" y2="81.0709" gradientUnits="userSpaceOnUse">
<stop stop-color="#00DD9C"/>
<stop offset="0.609375" stop-color="#253FE0" stop-opacity="0.619792"/>
<stop offset="1" stop-color="#060ED0" stop-opacity="0.28"/>
</linearGradient>
<linearGradient id="paint5_linear_123_684" x1="118.811" y1="77.1761" x2="122.334" y2="86.1484" gradientUnits="userSpaceOnUse">
<stop stop-color="#00DD9C"/>
<stop offset="0.609375" stop-color="#253FE0" stop-opacity="0.619792"/>
<stop offset="1" stop-color="#060ED0" stop-opacity="0.28"/>
</linearGradient>
<linearGradient id="paint6_linear_123_684" x1="118.811" y1="42.6499" x2="183.932" y2="61.0805" gradientUnits="userSpaceOnUse">
<stop stop-color="#00DD9C"/>
<stop offset="0.609375" stop-color="#253FE0" stop-opacity="0.619792"/>
<stop offset="1" stop-color="#060ED0" stop-opacity="0.28"/>
</linearGradient>
<clipPath id="clip0_123_684">
<rect width="73.8758" height="73.8758" fill="white" transform="translate(103.198 53.3124)"/>
</clipPath>
<clipPath id="clip1_123_684">
<rect width="48.7428" height="48.7428" fill="white" transform="translate(94.4395 42.6499)"/>
</clipPath>
</defs>
</svg>
