<svg width="242" height="223" viewBox="0 0 242 223" fill="none" xmlns="http://www.w3.org/2000/svg">
<g clip-path="url(#clip0_123_677)" filter="url(#filter0_f_123_677)">
<path d="M96.4617 46V119.876L118.049 104.836V56.2626L96.4617 46ZM86.4212 103.74L69.0396 110.38V52.421L86.4212 56.9213V103.74ZM45.6963 102.038L58.9991 98.9628V61.9695L45.7596 60.1041L45.6963 102.038Z" fill="#2FB8EB"/>
</g>
<g filter="url(#filter1_b_123_677)">
<rect y="48.2848" width="241.429" height="174.408" rx="11.4241" fill="url(#paint0_linear_123_677)"/>
<rect x="0.380803" y="48.6656" width="240.667" height="173.646" rx="11.0433" stroke="url(#paint1_linear_123_677)" stroke-width="0.761606"/>
</g>
<path d="M65.0033 185.334H61.2429V173.148H65.1699C66.352 173.148 67.3635 173.392 68.2044 173.88C69.0454 174.364 69.6899 175.06 70.1382 175.968C70.5864 176.873 70.8105 177.956 70.8105 179.217C70.8105 180.486 70.5844 181.579 70.1322 182.496C69.68 183.408 69.0216 184.11 68.1568 184.602C67.2921 185.09 66.2409 185.334 65.0033 185.334ZM62.7185 184.025H64.9081C65.9156 184.025 66.7506 183.83 67.4131 183.442C68.0755 183.053 68.5693 182.5 68.8946 181.782C69.2199 181.064 69.3825 180.209 69.3825 179.217C69.3825 178.233 69.2219 177.386 68.9006 176.676C68.5793 175.962 68.0993 175.415 67.4607 175.034C66.822 174.649 66.0267 174.457 65.0747 174.457H62.7185V184.025ZM75.7848 185.548C75.2056 185.548 74.68 185.439 74.208 185.221C73.736 184.999 73.3611 184.679 73.0835 184.263C72.8058 183.842 72.6669 183.335 72.6669 182.74C72.6669 182.216 72.7701 181.791 72.9764 181.466C73.1826 181.137 73.4583 180.879 73.8034 180.693C74.1485 180.506 74.5293 180.367 74.9458 180.276C75.3663 180.181 75.7887 180.106 76.2132 180.05C76.7685 179.979 77.2187 179.925 77.5638 179.889C77.9129 179.85 78.1668 179.784 78.3254 179.693C78.4881 179.602 78.5694 179.443 78.5694 179.217V179.169C78.5694 178.582 78.4087 178.126 78.0874 177.801C77.7701 177.476 77.2882 177.313 76.6416 177.313C75.9712 177.313 75.4456 177.46 75.0648 177.753C74.684 178.047 74.4163 178.36 74.2616 178.693L72.9288 178.217C73.1668 177.662 73.4841 177.23 73.8808 176.92C74.2814 176.607 74.7177 176.389 75.1898 176.266C75.6658 176.139 76.1338 176.075 76.594 176.075C76.8875 176.075 77.2247 176.111 77.6055 176.183C77.9903 176.25 78.3611 176.391 78.7181 176.605C79.0791 176.819 79.3786 177.143 79.6166 177.575C79.8546 178.007 79.9736 178.586 79.9736 179.312V185.334H78.5694V184.096H78.498C78.4028 184.294 78.2441 184.507 78.022 184.733C77.7999 184.959 77.5043 185.151 77.1354 185.31C76.7665 185.469 76.3163 185.548 75.7848 185.548ZM75.999 184.287C76.5543 184.287 77.0224 184.177 77.4032 183.959C77.788 183.741 78.0775 183.459 78.2719 183.114C78.4702 182.769 78.5694 182.406 78.5694 182.026V180.74C78.5099 180.812 78.379 180.877 78.1767 180.937C77.9784 180.992 77.7483 181.042 77.4865 181.085C77.2287 181.125 76.9768 181.161 76.7308 181.193C76.4889 181.22 76.2925 181.244 76.1418 181.264C75.7768 181.312 75.4357 181.389 75.1184 181.496C74.805 181.599 74.5511 181.756 74.3568 181.966C74.1664 182.172 74.0712 182.454 74.0712 182.811C74.0712 183.299 74.2516 183.668 74.6126 183.918C74.9776 184.164 75.4397 184.287 75.999 184.287ZM86.5112 176.194V177.384H81.775V176.194H86.5112ZM83.1554 174.005H84.5596V182.716C84.5596 183.112 84.6171 183.41 84.7322 183.608C84.8512 183.803 85.0019 183.933 85.1844 184.001C85.3708 184.064 85.5671 184.096 85.7734 184.096C85.9281 184.096 86.0551 184.088 86.1542 184.072C86.2534 184.052 86.3327 184.037 86.3922 184.025L86.6778 185.286C86.5826 185.322 86.4497 185.358 86.2792 185.393C86.1086 185.433 85.8924 185.453 85.6306 185.453C85.2339 185.453 84.8452 185.367 84.4644 185.197C84.0876 185.026 83.7742 184.767 83.5243 184.417C83.2784 184.068 83.1554 183.628 83.1554 183.097V174.005ZM91.3129 185.548C90.7338 185.548 90.2082 185.439 89.7361 185.221C89.2641 184.999 88.8893 184.679 88.6116 184.263C88.3339 183.842 88.1951 183.335 88.1951 182.74C88.1951 182.216 88.2982 181.791 88.5045 181.466C88.7108 181.137 88.9864 180.879 89.3315 180.693C89.6766 180.506 90.0574 180.367 90.474 180.276C90.8944 180.181 91.3169 180.106 91.7413 180.05C92.2967 179.979 92.7469 179.925 93.092 179.889C93.441 179.85 93.6949 179.784 93.8536 179.693C94.0162 179.602 94.0975 179.443 94.0975 179.217V179.169C94.0975 178.582 93.9369 178.126 93.6156 177.801C93.2982 177.476 92.8163 177.313 92.1697 177.313C91.4993 177.313 90.9738 177.46 90.593 177.753C90.2122 178.047 89.9444 178.36 89.7897 178.693L88.4569 178.217C88.6949 177.662 89.0122 177.23 89.4089 176.92C89.8095 176.607 90.2459 176.389 90.7179 176.266C91.1939 176.139 91.662 176.075 92.1221 176.075C92.4157 176.075 92.7528 176.111 93.1336 176.183C93.5184 176.25 93.8893 176.391 94.2463 176.605C94.6073 176.819 94.9067 177.143 95.1447 177.575C95.3827 178.007 95.5017 178.586 95.5017 179.312V185.334H94.0975V184.096H94.0261C93.9309 184.294 93.7723 184.507 93.5501 184.733C93.328 184.959 93.0325 185.151 92.6636 185.31C92.2947 185.469 91.8444 185.548 91.3129 185.548ZM91.5271 184.287C92.0824 184.287 92.5505 184.177 92.9313 183.959C93.3161 183.741 93.6057 183.459 93.8 183.114C93.9984 182.769 94.0975 182.406 94.0975 182.026V180.74C94.038 180.812 93.9071 180.877 93.7048 180.937C93.5065 180.992 93.2764 181.042 93.0146 181.085C92.7568 181.125 92.5049 181.161 92.259 181.193C92.017 181.22 91.8206 181.244 91.6699 181.264C91.305 181.312 90.9638 181.389 90.6465 181.496C90.3331 181.599 90.0793 181.756 89.8849 181.966C89.6945 182.172 89.5993 182.454 89.5993 182.811C89.5993 183.299 89.7798 183.668 90.1408 183.918C90.5057 184.164 90.9678 184.287 91.5271 184.287ZM102.968 185.334V173.148H107.085C108.041 173.148 108.822 173.321 109.429 173.666C110.04 174.007 110.492 174.469 110.786 175.052C111.079 175.635 111.226 176.286 111.226 177.004C111.226 177.722 111.079 178.374 110.786 178.961C110.496 179.548 110.048 180.016 109.441 180.365C108.834 180.711 108.057 180.883 107.109 180.883H104.158V179.574H107.061C107.716 179.574 108.241 179.461 108.638 179.235C109.035 179.009 109.322 178.703 109.501 178.319C109.683 177.93 109.774 177.492 109.774 177.004C109.774 176.516 109.683 176.079 109.501 175.695C109.322 175.31 109.033 175.008 108.632 174.79C108.231 174.568 107.7 174.457 107.037 174.457H104.443V185.334H102.968ZM113.413 185.334V176.194H114.769V177.575H114.865C115.031 177.123 115.333 176.756 115.769 176.474C116.205 176.192 116.697 176.052 117.245 176.052C117.348 176.052 117.477 176.054 117.631 176.058C117.786 176.062 117.903 176.068 117.983 176.075V177.503C117.935 177.492 117.826 177.474 117.655 177.45C117.489 177.422 117.312 177.408 117.126 177.408C116.681 177.408 116.285 177.501 115.936 177.688C115.591 177.87 115.317 178.124 115.115 178.45C114.916 178.771 114.817 179.138 114.817 179.55V185.334H113.413ZM123.082 185.524C122.257 185.524 121.533 185.328 120.91 184.935C120.291 184.542 119.807 183.993 119.458 183.287C119.113 182.581 118.94 181.756 118.94 180.812C118.94 179.86 119.113 179.029 119.458 178.319C119.807 177.609 120.291 177.057 120.91 176.665C121.533 176.272 122.257 176.075 123.082 176.075C123.907 176.075 124.629 176.272 125.248 176.665C125.87 177.057 126.354 177.609 126.699 178.319C127.048 179.029 127.223 179.86 127.223 180.812C127.223 181.756 127.048 182.581 126.699 183.287C126.354 183.993 125.87 184.542 125.248 184.935C124.629 185.328 123.907 185.524 123.082 185.524ZM123.082 184.263C123.708 184.263 124.224 184.102 124.629 183.781C125.033 183.459 125.333 183.037 125.527 182.513C125.722 181.99 125.819 181.423 125.819 180.812C125.819 180.201 125.722 179.632 125.527 179.104C125.333 178.576 125.033 178.15 124.629 177.825C124.224 177.5 123.708 177.337 123.082 177.337C122.455 177.337 121.939 177.5 121.535 177.825C121.13 178.15 120.831 178.576 120.636 179.104C120.442 179.632 120.345 180.201 120.345 180.812C120.345 181.423 120.442 181.99 120.636 182.513C120.831 183.037 121.13 183.459 121.535 183.781C121.939 184.102 122.455 184.263 123.082 184.263ZM133.341 176.194V177.384H128.605V176.194H133.341ZM129.985 174.005H131.389V182.716C131.389 183.112 131.447 183.41 131.562 183.608C131.681 183.803 131.832 183.933 132.014 184.001C132.201 184.064 132.397 184.096 132.603 184.096C132.758 184.096 132.885 184.088 132.984 184.072C133.083 184.052 133.163 184.037 133.222 184.025L133.508 185.286C133.412 185.322 133.28 185.358 133.109 185.393C132.938 185.433 132.722 185.453 132.46 185.453C132.064 185.453 131.675 185.367 131.294 185.197C130.917 185.026 130.604 184.767 130.354 184.417C130.108 184.068 129.985 183.628 129.985 183.097V174.005ZM139.187 185.524C138.306 185.524 137.547 185.33 136.908 184.941C136.273 184.548 135.784 184.001 135.438 183.299C135.097 182.593 134.927 181.772 134.927 180.836C134.927 179.899 135.097 179.074 135.438 178.36C135.784 177.642 136.264 177.083 136.878 176.682C137.497 176.278 138.219 176.075 139.044 176.075C139.52 176.075 139.99 176.155 140.454 176.313C140.918 176.472 141.341 176.73 141.722 177.087C142.103 177.44 142.406 177.908 142.632 178.491C142.858 179.074 142.971 179.792 142.971 180.645V181.24H135.926V180.026H141.543C141.543 179.511 141.44 179.05 141.234 178.646C141.032 178.241 140.742 177.922 140.365 177.688C139.992 177.454 139.552 177.337 139.044 177.337C138.485 177.337 138.001 177.476 137.592 177.753C137.188 178.027 136.876 178.384 136.658 178.824C136.44 179.265 136.331 179.737 136.331 180.24V181.05C136.331 181.74 136.45 182.325 136.688 182.805C136.93 183.281 137.265 183.644 137.694 183.894C138.122 184.14 138.62 184.263 139.187 184.263C139.556 184.263 139.889 184.211 140.187 184.108C140.488 184.001 140.748 183.842 140.966 183.632C141.184 183.418 141.353 183.152 141.472 182.835L142.828 183.216C142.686 183.676 142.446 184.08 142.108 184.429C141.771 184.774 141.355 185.044 140.859 185.239C140.363 185.429 139.806 185.524 139.187 185.524ZM148.82 185.524C147.963 185.524 147.226 185.322 146.607 184.917C145.988 184.513 145.512 183.955 145.179 183.245C144.845 182.535 144.679 181.724 144.679 180.812C144.679 179.883 144.849 179.064 145.191 178.354C145.536 177.64 146.016 177.083 146.631 176.682C147.249 176.278 147.971 176.075 148.796 176.075C149.439 176.075 150.018 176.194 150.534 176.432C151.049 176.67 151.472 177.004 151.801 177.432C152.13 177.86 152.335 178.36 152.414 178.931H151.01C150.903 178.515 150.665 178.146 150.296 177.825C149.931 177.5 149.439 177.337 148.82 177.337C148.273 177.337 147.793 177.48 147.38 177.765C146.972 178.047 146.652 178.446 146.422 178.961C146.196 179.473 146.083 180.074 146.083 180.764C146.083 181.47 146.194 182.085 146.416 182.609C146.642 183.132 146.96 183.539 147.368 183.828C147.781 184.118 148.265 184.263 148.82 184.263C149.185 184.263 149.516 184.199 149.814 184.072C150.111 183.945 150.363 183.763 150.569 183.525C150.776 183.287 150.922 183.001 151.01 182.668H152.414C152.335 183.208 152.138 183.694 151.825 184.126C151.515 184.554 151.105 184.895 150.593 185.149C150.085 185.399 149.494 185.524 148.82 185.524ZM158.441 176.194V177.384H153.705V176.194H158.441ZM155.086 174.005H156.49V182.716C156.49 183.112 156.547 183.41 156.662 183.608C156.781 183.803 156.932 183.933 157.114 184.001C157.301 184.064 157.497 184.096 157.704 184.096C157.858 184.096 157.985 184.088 158.084 184.072C158.184 184.052 158.263 184.037 158.322 184.025L158.608 185.286C158.513 185.322 158.38 185.358 158.209 185.393C158.039 185.433 157.823 185.453 157.561 185.453C157.164 185.453 156.775 185.367 156.395 185.197C156.018 185.026 155.704 184.767 155.454 184.417C155.208 184.068 155.086 183.628 155.086 183.097V174.005ZM160.554 185.334V176.194H161.958V185.334H160.554ZM161.268 174.671C160.994 174.671 160.758 174.578 160.56 174.392C160.365 174.205 160.268 173.981 160.268 173.719C160.268 173.457 160.365 173.233 160.56 173.047C160.758 172.86 160.994 172.767 161.268 172.767C161.541 172.767 161.775 172.86 161.97 173.047C162.168 173.233 162.267 173.457 162.267 173.719C162.267 173.981 162.168 174.205 161.97 174.392C161.775 174.578 161.541 174.671 161.268 174.671ZM168.243 185.524C167.417 185.524 166.694 185.328 166.071 184.935C165.452 184.542 164.968 183.993 164.619 183.287C164.274 182.581 164.101 181.756 164.101 180.812C164.101 179.86 164.274 179.029 164.619 178.319C164.968 177.609 165.452 177.057 166.071 176.665C166.694 176.272 167.417 176.075 168.243 176.075C169.068 176.075 169.79 176.272 170.408 176.665C171.031 177.057 171.515 177.609 171.86 178.319C172.209 179.029 172.384 179.86 172.384 180.812C172.384 181.756 172.209 182.581 171.86 183.287C171.515 183.993 171.031 184.542 170.408 184.935C169.79 185.328 169.068 185.524 168.243 185.524ZM168.243 184.263C168.869 184.263 169.385 184.102 169.79 183.781C170.194 183.459 170.494 183.037 170.688 182.513C170.882 181.99 170.98 181.423 170.98 180.812C170.98 180.201 170.882 179.632 170.688 179.104C170.494 178.576 170.194 178.15 169.79 177.825C169.385 177.5 168.869 177.337 168.243 177.337C167.616 177.337 167.1 177.5 166.696 177.825C166.291 178.15 165.991 178.576 165.797 179.104C165.603 179.632 165.506 180.201 165.506 180.812C165.506 181.423 165.603 181.99 165.797 182.513C165.991 183.037 166.291 183.459 166.696 183.781C167.1 184.102 167.616 184.263 168.243 184.263ZM175.932 179.836V185.334H174.527V176.194H175.884V177.622H176.003C176.217 177.158 176.542 176.786 176.979 176.504C177.415 176.218 177.978 176.075 178.669 176.075C179.287 176.075 179.829 176.202 180.293 176.456C180.757 176.706 181.118 177.087 181.376 177.599C181.634 178.106 181.763 178.749 181.763 179.526V185.334H180.358V179.622C180.358 178.904 180.172 178.344 179.799 177.944C179.426 177.539 178.914 177.337 178.264 177.337C177.816 177.337 177.415 177.434 177.062 177.628C176.713 177.823 176.437 178.106 176.235 178.479C176.033 178.852 175.932 179.304 175.932 179.836Z" fill="#BDF3FF"/>
<g clip-path="url(#clip1_123_677)">
<path d="M140.41 142.724H101.018C99.2061 142.724 97.6588 142.086 96.3765 140.811C95.0943 139.536 94.4531 137.998 94.4531 136.196V110.084C94.4531 109.2 94.7694 108.435 95.402 107.789C96.0346 107.143 96.8125 106.82 97.7357 106.82H122.355C122.355 106.582 122.552 106.106 122.945 105.392C123.339 104.678 123.723 104.015 124.099 103.403L124.715 102.536C124.954 101.89 125.433 101.354 126.151 100.929C126.869 100.504 127.621 100.292 128.408 100.292H140.718C141.538 100.292 142.308 100.504 143.026 100.929C143.744 101.354 144.222 101.89 144.462 102.536C146.137 104.712 146.975 106.14 146.975 106.82V136.196C146.975 137.998 146.334 139.536 145.052 140.811C143.769 142.086 142.222 142.724 140.41 142.724ZM127.279 119.876C127.279 118.074 126.638 116.535 125.356 115.26C124.074 113.985 122.526 113.348 120.714 113.348C118.902 113.348 117.355 113.985 116.072 115.26C114.79 116.535 114.149 118.074 114.149 119.876C114.149 121.202 114.534 122.417 115.303 123.522C116.072 124.627 117.072 125.418 118.303 125.894L114.149 136.196H127.279L123.125 125.894C124.356 125.418 125.356 124.627 126.125 123.522C126.895 122.417 127.279 121.202 127.279 119.876ZM96.8125 99.2716C97.0519 98.6256 97.5306 98.0901 98.2487 97.6651C98.9667 97.2401 99.719 97.0276 100.505 97.0276H112.815C113.636 97.0276 114.405 97.2401 115.123 97.6651C115.841 98.0901 116.337 98.6256 116.611 99.2716L119.073 103.556H94.4531L96.8125 99.2716Z" fill="url(#paint2_linear_123_677)"/>
</g>
<defs>
<filter id="filter0_f_123_677" x="-6.09285" y="0.303638" width="175.931" height="165.268" filterUnits="userSpaceOnUse" color-interpolation-filters="sRGB">
<feFlood flood-opacity="0" result="BackgroundImageFix"/>
<feBlend mode="normal" in="SourceGraphic" in2="BackgroundImageFix" result="shape"/>
<feGaussianBlur stdDeviation="22.8482" result="effect1_foregroundBlur_123_677"/>
</filter>
<filter id="filter1_b_123_677" x="-38.0803" y="10.2045" width="317.589" height="250.568" filterUnits="userSpaceOnUse" color-interpolation-filters="sRGB">
<feFlood flood-opacity="0" result="BackgroundImageFix"/>
<feGaussianBlur in="BackgroundImageFix" stdDeviation="19.0402"/>
<feComposite in2="SourceAlpha" operator="in" result="effect1_backgroundBlur_123_677"/>
<feBlend mode="normal" in="SourceGraphic" in2="effect1_backgroundBlur_123_677" result="shape"/>
</filter>
<linearGradient id="paint0_linear_123_677" x1="120.715" y1="-4.53527" x2="120.715" y2="301.032" gradientUnits="userSpaceOnUse">
<stop stop-color="white" stop-opacity="0.03"/>
<stop offset="1" stop-color="white" stop-opacity="0"/>
</linearGradient>
<linearGradient id="paint1_linear_123_677" x1="267.264" y1="222.693" x2="18.2949" y2="-16.6987" gradientUnits="userSpaceOnUse">
<stop stop-color="#F5FBF2" stop-opacity="0.44"/>
<stop offset="1" stop-color="#F5FBF2" stop-opacity="0"/>
</linearGradient>
<linearGradient id="paint2_linear_123_677" x1="120.714" y1="97.0276" x2="189.252" y2="119.323" gradientUnits="userSpaceOnUse">
<stop stop-color="#05D2FF"/>
<stop offset="0.609375" stop-color="#253FE0" stop-opacity="0.619792"/>
<stop offset="1" stop-color="#060ED0" stop-opacity="0.28"/>
</linearGradient>
<clipPath id="clip0_123_677">
<rect width="84.5383" height="73.8758" fill="white" transform="translate(39.6035 46)"/>
</clipPath>
<clipPath id="clip1_123_677">
<rect width="52.5821" height="45.6964" fill="white" transform="translate(94.4229 97.0276)"/>
</clipPath>
</defs>
</svg>
