<svg width="255" height="238" viewBox="0 0 255 238" fill="none" xmlns="http://www.w3.org/2000/svg">
<g clip-path="url(#clip0_123_696)" filter="url(#filter0_f_123_696)">
<path d="M109.874 45.9999V135.108L137.142 116.967V58.3785L109.874 45.9999ZM97.191 115.645L75.2353 123.654V53.7449L97.191 59.1731V115.645ZM45.749 113.592L62.5526 109.883V65.2621L45.829 63.0121L45.749 113.592Z" fill="#FFB413"/>
</g>
<g filter="url(#filter1_b_123_696)">
<rect x="13" y="62.7552" width="241.429" height="174.408" rx="11.4241" fill="url(#paint0_linear_123_696)"/>
<rect x="13.3808" y="63.1361" width="240.667" height="173.646" rx="11.0433" stroke="url(#paint1_linear_123_696)" stroke-width="0.761606"/>
</g>
<path d="M86.4985 187.086H88.2597L92.4009 197.201H92.5437L96.685 187.086H98.4462V199.271H97.0658V190.013H96.9468L93.1387 199.271H91.8059L87.9979 190.013H87.8789V199.271H86.4985V187.086ZM103.904 199.486C103.325 199.486 102.799 199.376 102.327 199.158C101.855 198.936 101.48 198.617 101.203 198.2C100.925 197.78 100.786 197.272 100.786 196.677C100.786 196.153 100.889 195.729 101.095 195.404C101.302 195.075 101.577 194.817 101.922 194.63C102.268 194.444 102.648 194.305 103.065 194.214C103.485 194.119 103.908 194.043 104.332 193.988C104.888 193.916 105.338 193.863 105.683 193.827C106.032 193.787 106.286 193.722 106.445 193.631C106.607 193.539 106.688 193.381 106.688 193.155V193.107C106.688 192.52 106.528 192.064 106.207 191.739C105.889 191.413 105.407 191.251 104.761 191.251C104.09 191.251 103.565 191.397 103.184 191.691C102.803 191.984 102.535 192.298 102.381 192.631L101.048 192.155C101.286 191.6 101.603 191.167 102 190.858C102.4 190.545 102.837 190.326 103.309 190.203C103.785 190.076 104.253 190.013 104.713 190.013C105.007 190.013 105.344 190.049 105.725 190.12C106.109 190.188 106.48 190.328 106.837 190.543C107.198 190.757 107.498 191.08 107.736 191.512C107.974 191.945 108.093 192.524 108.093 193.25V199.271H106.688V198.034H106.617C106.522 198.232 106.363 198.444 106.141 198.67C105.919 198.896 105.623 199.089 105.255 199.248C104.886 199.406 104.435 199.486 103.904 199.486ZM104.118 198.224C104.673 198.224 105.141 198.115 105.522 197.897C105.907 197.679 106.197 197.397 106.391 197.052C106.589 196.707 106.688 196.344 106.688 195.963V194.678C106.629 194.749 106.498 194.815 106.296 194.874C106.097 194.93 105.867 194.979 105.606 195.023C105.348 195.063 105.096 195.098 104.85 195.13C104.608 195.158 104.412 195.182 104.261 195.201C103.896 195.249 103.555 195.326 103.237 195.434C102.924 195.537 102.67 195.693 102.476 195.904C102.285 196.11 102.19 196.391 102.19 196.748C102.19 197.236 102.371 197.605 102.732 197.855C103.097 198.101 103.559 198.224 104.118 198.224ZM110.656 199.271V190.132H112.012V191.512H112.107C112.274 191.06 112.576 190.693 113.012 190.412C113.448 190.13 113.94 189.989 114.488 189.989C114.591 189.989 114.72 189.991 114.874 189.995C115.029 189.999 115.146 190.005 115.225 190.013V191.441C115.178 191.429 115.069 191.411 114.898 191.387C114.731 191.36 114.555 191.346 114.369 191.346C113.924 191.346 113.528 191.439 113.178 191.625C112.833 191.808 112.56 192.062 112.357 192.387C112.159 192.708 112.06 193.075 112.06 193.488V199.271H110.656ZM118.199 195.939L118.175 194.202H118.461L122.459 190.132H124.196L119.936 194.44H119.817L118.199 195.939ZM116.89 199.271V187.086H118.294V199.271H116.89ZM122.697 199.271L119.127 194.749L120.127 193.773L124.482 199.271H122.697ZM129.459 199.462C128.579 199.462 127.819 199.267 127.18 198.879C126.546 198.486 126.056 197.938 125.711 197.236C125.37 196.53 125.199 195.709 125.199 194.773C125.199 193.837 125.37 193.012 125.711 192.298C126.056 191.58 126.536 191.021 127.151 190.62C127.77 190.215 128.491 190.013 129.317 190.013C129.793 190.013 130.263 190.092 130.727 190.251C131.191 190.41 131.613 190.668 131.994 191.025C132.375 191.378 132.678 191.846 132.904 192.429C133.13 193.012 133.244 193.73 133.244 194.583V195.178H126.199V193.964H131.816C131.816 193.448 131.712 192.988 131.506 192.583C131.304 192.179 131.014 191.86 130.637 191.625C130.265 191.391 129.824 191.274 129.317 191.274C128.757 191.274 128.273 191.413 127.865 191.691C127.46 191.965 127.149 192.322 126.931 192.762C126.712 193.202 126.603 193.674 126.603 194.178V194.987C126.603 195.677 126.722 196.263 126.96 196.743C127.202 197.219 127.537 197.581 127.966 197.831C128.394 198.077 128.892 198.2 129.459 198.2C129.828 198.2 130.161 198.149 130.459 198.046C130.76 197.938 131.02 197.78 131.238 197.57C131.457 197.355 131.625 197.09 131.744 196.772L133.101 197.153C132.958 197.613 132.718 198.018 132.381 198.367C132.044 198.712 131.627 198.982 131.131 199.176C130.635 199.367 130.078 199.462 129.459 199.462ZM139.354 190.132V191.322H134.618V190.132H139.354ZM135.998 187.942H137.403V196.653C137.403 197.05 137.46 197.347 137.575 197.546C137.694 197.74 137.845 197.871 138.027 197.938C138.214 198.002 138.41 198.034 138.616 198.034C138.771 198.034 138.898 198.026 138.997 198.01C139.096 197.99 139.176 197.974 139.235 197.962L139.521 199.224C139.426 199.259 139.293 199.295 139.122 199.331C138.952 199.37 138.735 199.39 138.474 199.39C138.077 199.39 137.688 199.305 137.307 199.134C136.931 198.964 136.617 198.704 136.367 198.355C136.121 198.006 135.998 197.566 135.998 197.034V187.942ZM141.467 202.699V190.132H142.823V191.584H142.99C143.093 191.425 143.236 191.223 143.418 190.977C143.605 190.727 143.87 190.505 144.215 190.311C144.564 190.112 145.037 190.013 145.632 190.013C146.401 190.013 147.079 190.205 147.666 190.59C148.254 190.975 148.712 191.52 149.041 192.226C149.37 192.933 149.535 193.766 149.535 194.725C149.535 195.693 149.37 196.532 149.041 197.242C148.712 197.948 148.256 198.496 147.672 198.885C147.089 199.269 146.417 199.462 145.655 199.462C145.068 199.462 144.598 199.365 144.245 199.17C143.892 198.972 143.62 198.748 143.43 198.498C143.24 198.244 143.093 198.034 142.99 197.867H142.871V202.699H141.467ZM142.847 194.702C142.847 195.392 142.948 196.001 143.15 196.528C143.353 197.052 143.648 197.462 144.037 197.76C144.426 198.054 144.902 198.2 145.465 198.2C146.052 198.2 146.542 198.046 146.935 197.736C147.331 197.423 147.629 197.002 147.827 196.475C148.029 195.943 148.131 195.352 148.131 194.702C148.131 194.059 148.031 193.48 147.833 192.964C147.639 192.445 147.343 192.034 146.947 191.733C146.554 191.427 146.06 191.274 145.465 191.274C144.894 191.274 144.414 191.419 144.025 191.709C143.636 191.994 143.343 192.395 143.144 192.911C142.946 193.422 142.847 194.019 142.847 194.702ZM153.081 187.086V199.271H151.677V187.086H153.081ZM158.342 199.486C157.763 199.486 157.238 199.376 156.766 199.158C156.294 198.936 155.919 198.617 155.641 198.2C155.363 197.78 155.225 197.272 155.225 196.677C155.225 196.153 155.328 195.729 155.534 195.404C155.74 195.075 156.016 194.817 156.361 194.63C156.706 194.444 157.087 194.305 157.503 194.214C157.924 194.119 158.346 194.043 158.771 193.988C159.326 193.916 159.776 193.863 160.121 193.827C160.47 193.787 160.724 193.722 160.883 193.631C161.046 193.539 161.127 193.381 161.127 193.155V193.107C161.127 192.52 160.966 192.064 160.645 191.739C160.328 191.413 159.846 191.251 159.199 191.251C158.529 191.251 158.003 191.397 157.622 191.691C157.242 191.984 156.974 192.298 156.819 192.631L155.486 192.155C155.724 191.6 156.042 191.167 156.438 190.858C156.839 190.545 157.275 190.326 157.747 190.203C158.223 190.076 158.691 190.013 159.152 190.013C159.445 190.013 159.782 190.049 160.163 190.12C160.548 190.188 160.919 190.328 161.276 190.543C161.637 190.757 161.936 191.08 162.174 191.512C162.412 191.945 162.531 192.524 162.531 193.25V199.271H161.127V198.034H161.056C160.96 198.232 160.802 198.444 160.58 198.67C160.357 198.896 160.062 199.089 159.693 199.248C159.324 199.406 158.874 199.486 158.342 199.486ZM158.557 198.224C159.112 198.224 159.58 198.115 159.961 197.897C160.346 197.679 160.635 197.397 160.829 197.052C161.028 196.707 161.127 196.344 161.127 195.963V194.678C161.067 194.749 160.937 194.815 160.734 194.874C160.536 194.93 160.306 194.979 160.044 195.023C159.786 195.063 159.534 195.098 159.288 195.13C159.046 195.158 158.85 195.182 158.699 195.201C158.334 195.249 157.993 195.326 157.676 195.434C157.363 195.537 157.109 195.693 156.914 195.904C156.724 196.11 156.629 196.391 156.629 196.748C156.629 197.236 156.809 197.605 157.17 197.855C157.535 198.101 157.997 198.224 158.557 198.224ZM168.807 199.462C167.95 199.462 167.212 199.259 166.594 198.855C165.975 198.45 165.499 197.893 165.166 197.183C164.832 196.473 164.666 195.662 164.666 194.749C164.666 193.821 164.836 193.002 165.177 192.292C165.523 191.578 166.003 191.021 166.617 190.62C167.236 190.215 167.958 190.013 168.783 190.013C169.426 190.013 170.005 190.132 170.521 190.37C171.036 190.608 171.459 190.941 171.788 191.37C172.117 191.798 172.321 192.298 172.401 192.869H170.997C170.889 192.453 170.651 192.084 170.283 191.762C169.918 191.437 169.426 191.274 168.807 191.274C168.26 191.274 167.78 191.417 167.367 191.703C166.958 191.984 166.639 192.383 166.409 192.899C166.183 193.411 166.07 194.011 166.07 194.702C166.07 195.408 166.181 196.023 166.403 196.546C166.629 197.07 166.947 197.476 167.355 197.766C167.768 198.056 168.252 198.2 168.807 198.2C169.172 198.2 169.503 198.137 169.801 198.01C170.098 197.883 170.35 197.7 170.556 197.462C170.763 197.224 170.909 196.939 170.997 196.606H172.401C172.321 197.145 172.125 197.631 171.812 198.063C171.502 198.492 171.092 198.833 170.58 199.087C170.072 199.337 169.481 199.462 168.807 199.462ZM178.285 199.462C177.405 199.462 176.645 199.267 176.007 198.879C175.372 198.486 174.882 197.938 174.537 197.236C174.196 196.53 174.025 195.709 174.025 194.773C174.025 193.837 174.196 193.012 174.537 192.298C174.882 191.58 175.362 191.021 175.977 190.62C176.596 190.215 177.318 190.013 178.143 190.013C178.619 190.013 179.089 190.092 179.553 190.251C180.017 190.41 180.439 190.668 180.82 191.025C181.201 191.378 181.504 191.846 181.73 192.429C181.957 193.012 182.07 193.73 182.07 194.583V195.178H175.025V193.964H180.642C180.642 193.448 180.538 192.988 180.332 192.583C180.13 192.179 179.84 191.86 179.464 191.625C179.091 191.391 178.65 191.274 178.143 191.274C177.583 191.274 177.099 191.413 176.691 191.691C176.286 191.965 175.975 192.322 175.757 192.762C175.538 193.202 175.429 193.674 175.429 194.178V194.987C175.429 195.677 175.548 196.263 175.786 196.743C176.028 197.219 176.364 197.581 176.792 197.831C177.22 198.077 177.718 198.2 178.285 198.2C178.654 198.2 178.988 198.149 179.285 198.046C179.586 197.938 179.846 197.78 180.064 197.57C180.283 197.355 180.451 197.09 180.57 196.772L181.927 197.153C181.784 197.613 181.544 198.018 181.207 198.367C180.87 198.712 180.453 198.982 179.957 199.176C179.462 199.367 178.904 199.462 178.285 199.462Z" fill="#BDF3FF"/>
<g clip-path="url(#clip1_123_696)">
<path d="M144.24 101.13V162.058L159.812 149.654V109.593L144.24 101.13ZM136.997 148.75L124.458 154.226V106.425L136.997 110.137V148.75ZM107.619 147.346L117.215 144.81V114.3L107.665 112.762L107.619 147.346Z" fill="url(#paint2_linear_123_696)"/>
</g>
<defs>
<filter id="filter0_f_123_696" x="-7.56355" y="0.303577" width="198.018" height="180.501" filterUnits="userSpaceOnUse" color-interpolation-filters="sRGB">
<feFlood flood-opacity="0" result="BackgroundImageFix"/>
<feBlend mode="normal" in="SourceGraphic" in2="BackgroundImageFix" result="shape"/>
<feGaussianBlur stdDeviation="22.8482" result="effect1_foregroundBlur_123_696"/>
</filter>
<filter id="filter1_b_123_696" x="-25.0803" y="24.6749" width="317.589" height="250.568" filterUnits="userSpaceOnUse" color-interpolation-filters="sRGB">
<feFlood flood-opacity="0" result="BackgroundImageFix"/>
<feGaussianBlur in="BackgroundImageFix" stdDeviation="19.0402"/>
<feComposite in2="SourceAlpha" operator="in" result="effect1_backgroundBlur_123_696"/>
<feBlend mode="normal" in="SourceGraphic" in2="effect1_backgroundBlur_123_696" result="shape"/>
</filter>
<linearGradient id="paint0_linear_123_696" x1="133.715" y1="9.93519" x2="133.715" y2="315.503" gradientUnits="userSpaceOnUse">
<stop stop-color="white" stop-opacity="0.03"/>
<stop offset="1" stop-color="white" stop-opacity="0"/>
</linearGradient>
<linearGradient id="paint1_linear_123_696" x1="280.264" y1="237.163" x2="31.2949" y2="-2.22819" gradientUnits="userSpaceOnUse">
<stop stop-color="#F5FBF2" stop-opacity="0.44"/>
<stop offset="1" stop-color="#F5FBF2" stop-opacity="0"/>
</linearGradient>
<linearGradient id="paint2_linear_123_696" x1="133.716" y1="101.13" x2="204.85" y2="118.376" gradientUnits="userSpaceOnUse">
<stop stop-color="#F7BC51"/>
<stop offset="0.609375" stop-color="#60E7CE" stop-opacity="0.5"/>
<stop offset="1" stop-color="#060ED0" stop-opacity="0.28"/>
</linearGradient>
<clipPath id="clip0_123_696">
<rect width="106.625" height="89.1079" fill="white" transform="translate(38.1328 45.9999)"/>
</clipPath>
<clipPath id="clip1_123_696">
<rect width="60.9285" height="60.9285" fill="white" transform="translate(103.25 101.13)"/>
</clipPath>
</defs>
</svg>
