<svg width="243" height="214" viewBox="0 0 243 214" fill="none" xmlns="http://www.w3.org/2000/svg">
<g clip-path="url(#clip0_123_703)" filter="url(#filter0_f_123_703)">
<path d="M125.194 78.6678V167.776L150.417 149.635V91.0464L125.194 78.6678ZM113.463 148.313L93.1537 156.322V86.4127L113.463 91.8409V148.313ZM65.8789 146.26L81.4222 142.551V97.9299L65.9529 95.68L65.8789 146.26Z" fill="#FF5A13"/>
</g>
<g filter="url(#filter1_b_123_703)">
<rect y="0.755249" width="242.191" height="174.408" rx="11.4241" fill="url(#paint0_linear_123_703)"/>
<rect x="0.380803" y="1.13605" width="241.429" height="173.646" rx="11.0433" stroke="url(#paint1_linear_123_703)" stroke-width="0.761606"/>
</g>
<path d="M55.2842 125.619H57.0454L61.1866 135.734H61.3294L65.4707 125.619H67.2319V137.804H65.8515V128.546H65.7325L61.9244 137.804H60.5916L56.7836 128.546H56.6646V137.804H55.2842V125.619ZM73.713 137.995C72.8879 137.995 72.164 137.798 71.5412 137.406C70.9224 137.013 70.4384 136.463 70.0894 135.757C69.7443 135.051 69.5717 134.226 69.5717 133.282C69.5717 132.33 69.7443 131.499 70.0894 130.789C70.4384 130.079 70.9224 129.528 71.5412 129.135C72.164 128.742 72.8879 128.546 73.713 128.546C74.538 128.546 75.26 128.742 75.8788 129.135C76.5015 129.528 76.9855 130.079 77.3306 130.789C77.6797 131.499 77.8542 132.33 77.8542 133.282C77.8542 134.226 77.6797 135.051 77.3306 135.757C76.9855 136.463 76.5015 137.013 75.8788 137.406C75.26 137.798 74.538 137.995 73.713 137.995ZM73.713 136.733C74.3397 136.733 74.8554 136.573 75.26 136.251C75.6646 135.93 75.9641 135.507 76.1584 134.984C76.3528 134.46 76.45 133.893 76.45 133.282C76.45 132.671 76.3528 132.102 76.1584 131.574C75.9641 131.047 75.6646 130.621 75.26 130.295C74.8554 129.97 74.3397 129.807 73.713 129.807C73.0862 129.807 72.5705 129.97 72.1659 130.295C71.7613 130.621 71.4619 131.047 71.2675 131.574C71.0731 132.102 70.9759 132.671 70.9759 133.282C70.9759 133.893 71.0731 134.46 71.2675 134.984C71.4619 135.507 71.7613 135.93 72.1659 136.251C72.5705 136.573 73.0862 136.733 73.713 136.733ZM81.4019 132.306V137.804H79.9977V128.665H81.3543V130.093H81.4733C81.6875 129.629 82.0128 129.256 82.4491 128.974C82.8855 128.689 83.4487 128.546 84.1389 128.546C84.7577 128.546 85.2992 128.673 85.7633 128.927C86.2274 129.177 86.5884 129.557 86.8462 130.069C87.104 130.577 87.233 131.219 87.233 131.997V137.804H85.8287V132.092C85.8287 131.374 85.6423 130.815 85.2694 130.414C84.8966 130.01 84.3849 129.807 83.7343 129.807C83.2861 129.807 82.8855 129.905 82.5324 130.099C82.1833 130.293 81.9077 130.577 81.7054 130.95C81.5031 131.323 81.4019 131.775 81.4019 132.306ZM93.6307 137.995C92.7501 137.995 91.9905 137.8 91.3519 137.411C90.7172 137.019 90.2273 136.471 89.8822 135.769C89.5411 135.063 89.3705 134.242 89.3705 133.306C89.3705 132.37 89.5411 131.545 89.8822 130.831C90.2273 130.113 90.7073 129.553 91.3221 129.153C91.9409 128.748 92.6629 128.546 93.4879 128.546C93.9639 128.546 94.434 128.625 94.8981 128.784C95.3622 128.943 95.7847 129.2 96.1655 129.557C96.5463 129.91 96.8497 130.379 97.0758 130.962C97.3019 131.545 97.415 132.263 97.415 133.116V133.711H90.3701V132.497H95.987C95.987 131.981 95.8838 131.521 95.6776 131.116C95.4753 130.712 95.1857 130.392 94.8089 130.158C94.436 129.924 93.9957 129.807 93.4879 129.807C92.9286 129.807 92.4447 129.946 92.0361 130.224C91.6315 130.498 91.3201 130.855 91.102 131.295C90.8838 131.735 90.7747 132.207 90.7747 132.711V133.52C90.7747 134.21 90.8937 134.795 91.1317 135.275C91.3737 135.751 91.7089 136.114 92.1373 136.364C92.5657 136.61 93.0635 136.733 93.6307 136.733C93.9996 136.733 94.3328 136.682 94.6304 136.578C94.9318 136.471 95.1916 136.313 95.4098 136.102C95.628 135.888 95.7966 135.623 95.9156 135.305L97.2722 135.686C97.1294 136.146 96.8894 136.551 96.5522 136.9C96.215 137.245 95.7985 137.515 95.3027 137.709C94.8069 137.899 94.2495 137.995 93.6307 137.995ZM100.177 141.231C99.9393 141.231 99.7271 141.212 99.5406 141.172C99.3542 141.136 99.2253 141.101 99.1539 141.065L99.5109 139.827C99.852 139.914 100.153 139.946 100.415 139.922C100.677 139.899 100.909 139.782 101.111 139.571C101.318 139.365 101.506 139.03 101.677 138.566L101.938 137.852L98.5589 128.665H100.082L102.605 135.948H102.7L105.223 128.665H106.746L102.867 139.137C102.692 139.609 102.476 140 102.218 140.309C101.96 140.623 101.661 140.855 101.32 141.005C100.983 141.156 100.602 141.231 100.177 141.231ZM113.502 137.804V125.619H117.62C118.576 125.619 119.357 125.791 119.964 126.136C120.575 126.477 121.027 126.939 121.321 127.523C121.614 128.106 121.761 128.756 121.761 129.474C121.761 130.192 121.614 130.845 121.321 131.432C121.031 132.019 120.583 132.487 119.976 132.836C119.369 133.181 118.592 133.354 117.644 133.354H114.692V132.045H117.596C118.251 132.045 118.776 131.932 119.173 131.705C119.569 131.479 119.857 131.174 120.036 130.789C120.218 130.4 120.309 129.962 120.309 129.474C120.309 128.986 120.218 128.55 120.036 128.165C119.857 127.78 119.567 127.479 119.167 127.261C118.766 127.039 118.235 126.928 117.572 126.928H114.978V137.804H113.502ZM123.948 137.804V128.665H125.304V130.045H125.4C125.566 129.593 125.868 129.226 126.304 128.945C126.74 128.663 127.232 128.522 127.78 128.522C127.883 128.522 128.012 128.524 128.166 128.528C128.321 128.532 128.438 128.538 128.517 128.546V129.974C128.47 129.962 128.361 129.944 128.19 129.92C128.024 129.893 127.847 129.879 127.661 129.879C127.216 129.879 126.82 129.972 126.471 130.158C126.125 130.341 125.852 130.595 125.649 130.92C125.451 131.241 125.352 131.608 125.352 132.021V137.804H123.948ZM133.617 137.995C132.791 137.995 132.068 137.798 131.445 137.406C130.826 137.013 130.342 136.463 129.993 135.757C129.648 135.051 129.475 134.226 129.475 133.282C129.475 132.33 129.648 131.499 129.993 130.789C130.342 130.079 130.826 129.528 131.445 129.135C132.068 128.742 132.791 128.546 133.617 128.546C134.442 128.546 135.164 128.742 135.782 129.135C136.405 129.528 136.889 130.079 137.234 130.789C137.583 131.499 137.758 132.33 137.758 133.282C137.758 134.226 137.583 135.051 137.234 135.757C136.889 136.463 136.405 137.013 135.782 137.406C135.164 137.798 134.442 137.995 133.617 137.995ZM133.617 136.733C134.243 136.733 134.759 136.573 135.164 136.251C135.568 135.93 135.868 135.507 136.062 134.984C136.256 134.46 136.354 133.893 136.354 133.282C136.354 132.671 136.256 132.102 136.062 131.574C135.868 131.047 135.568 130.621 135.164 130.295C134.759 129.97 134.243 129.807 133.617 129.807C132.99 129.807 132.474 129.97 132.07 130.295C131.665 130.621 131.365 131.047 131.171 131.574C130.977 132.102 130.88 132.671 130.88 133.282C130.88 133.893 130.977 134.46 131.171 134.984C131.365 135.507 131.665 135.93 132.07 136.251C132.474 136.573 132.99 136.733 133.617 136.733ZM143.876 128.665V129.855H139.14V128.665H143.876ZM140.52 126.475H141.924V135.186C141.924 135.583 141.982 135.88 142.097 136.079C142.216 136.273 142.367 136.404 142.549 136.471C142.735 136.535 142.932 136.567 143.138 136.567C143.293 136.567 143.42 136.559 143.519 136.543C143.618 136.523 143.697 136.507 143.757 136.495L144.043 137.757C143.947 137.792 143.814 137.828 143.644 137.864C143.473 137.903 143.257 137.923 142.995 137.923C142.599 137.923 142.21 137.838 141.829 137.667C141.452 137.497 141.139 137.237 140.889 136.888C140.643 136.539 140.52 136.099 140.52 135.567V126.475ZM149.722 137.995C148.841 137.995 148.082 137.8 147.443 137.411C146.808 137.019 146.318 136.471 145.973 135.769C145.632 135.063 145.462 134.242 145.462 133.306C145.462 132.37 145.632 131.545 145.973 130.831C146.318 130.113 146.798 129.553 147.413 129.153C148.032 128.748 148.754 128.546 149.579 128.546C150.055 128.546 150.525 128.625 150.989 128.784C151.453 128.943 151.876 129.2 152.257 129.557C152.637 129.91 152.941 130.379 153.167 130.962C153.393 131.545 153.506 132.263 153.506 133.116V133.711H146.461V132.497H152.078C152.078 131.981 151.975 131.521 151.769 131.116C151.566 130.712 151.277 130.392 150.9 130.158C150.527 129.924 150.087 129.807 149.579 129.807C149.02 129.807 148.536 129.946 148.127 130.224C147.723 130.498 147.411 130.855 147.193 131.295C146.975 131.735 146.866 132.207 146.866 132.711V133.52C146.866 134.21 146.985 134.795 147.223 135.275C147.465 135.751 147.8 136.114 148.228 136.364C148.657 136.61 149.155 136.733 149.722 136.733C150.091 136.733 150.424 136.682 150.721 136.578C151.023 136.471 151.283 136.313 151.501 136.102C151.719 135.888 151.888 135.623 152.007 135.305L153.363 135.686C153.22 136.146 152.98 136.551 152.643 136.9C152.306 137.245 151.89 137.515 151.394 137.709C150.898 137.899 150.341 137.995 149.722 137.995ZM159.355 137.995C158.498 137.995 157.76 137.792 157.142 137.388C156.523 136.983 156.047 136.426 155.714 135.716C155.38 135.006 155.214 134.195 155.214 133.282C155.214 132.354 155.384 131.535 155.725 130.825C156.071 130.111 156.551 129.553 157.165 129.153C157.784 128.748 158.506 128.546 159.331 128.546C159.974 128.546 160.553 128.665 161.069 128.903C161.584 129.141 162.007 129.474 162.336 129.903C162.665 130.331 162.869 130.831 162.949 131.402H161.545C161.437 130.985 161.199 130.617 160.831 130.295C160.466 129.97 159.974 129.807 159.355 129.807C158.808 129.807 158.328 129.95 157.915 130.236C157.506 130.517 157.187 130.916 156.957 131.432C156.731 131.943 156.618 132.544 156.618 133.235C156.618 133.941 156.729 134.555 156.951 135.079C157.177 135.603 157.495 136.009 157.903 136.299C158.316 136.588 158.8 136.733 159.355 136.733C159.72 136.733 160.051 136.67 160.349 136.543C160.646 136.416 160.898 136.233 161.104 135.995C161.311 135.757 161.457 135.472 161.545 135.139H162.949C162.869 135.678 162.673 136.164 162.36 136.596C162.05 137.025 161.64 137.366 161.128 137.62C160.62 137.87 160.029 137.995 159.355 137.995ZM168.976 128.665V129.855H164.24V128.665H168.976ZM165.62 126.475H167.025V135.186C167.025 135.583 167.082 135.88 167.197 136.079C167.316 136.273 167.467 136.404 167.649 136.471C167.836 136.535 168.032 136.567 168.238 136.567C168.393 136.567 168.52 136.559 168.619 136.543C168.718 136.523 168.798 136.507 168.857 136.495L169.143 137.757C169.048 137.792 168.915 137.828 168.744 137.864C168.574 137.903 168.357 137.923 168.096 137.923C167.699 137.923 167.31 137.838 166.929 137.667C166.553 137.497 166.239 137.237 165.989 136.888C165.743 136.539 165.62 136.099 165.62 135.567V126.475ZM171.088 137.804V128.665H172.493V137.804H171.088ZM171.802 127.142C171.529 127.142 171.293 127.048 171.094 126.862C170.9 126.676 170.803 126.452 170.803 126.19C170.803 125.928 170.9 125.704 171.094 125.517C171.293 125.331 171.529 125.238 171.802 125.238C172.076 125.238 172.31 125.331 172.505 125.517C172.703 125.704 172.802 125.928 172.802 126.19C172.802 126.452 172.703 126.676 172.505 126.862C172.31 127.048 172.076 127.142 171.802 127.142ZM178.777 137.995C177.952 137.995 177.228 137.798 176.606 137.406C175.987 137.013 175.503 136.463 175.154 135.757C174.809 135.051 174.636 134.226 174.636 133.282C174.636 132.33 174.809 131.499 175.154 130.789C175.503 130.079 175.987 129.528 176.606 129.135C177.228 128.742 177.952 128.546 178.777 128.546C179.602 128.546 180.324 128.742 180.943 129.135C181.566 129.528 182.05 130.079 182.395 130.789C182.744 131.499 182.919 132.33 182.919 133.282C182.919 134.226 182.744 135.051 182.395 135.757C182.05 136.463 181.566 137.013 180.943 137.406C180.324 137.798 179.602 137.995 178.777 137.995ZM178.777 136.733C179.404 136.733 179.92 136.573 180.324 136.251C180.729 135.93 181.029 135.507 181.223 134.984C181.417 134.46 181.514 133.893 181.514 133.282C181.514 132.671 181.417 132.102 181.223 131.574C181.029 131.047 180.729 130.621 180.324 130.295C179.92 129.97 179.404 129.807 178.777 129.807C178.151 129.807 177.635 129.97 177.23 130.295C176.826 130.621 176.526 131.047 176.332 131.574C176.138 132.102 176.04 132.671 176.04 133.282C176.04 133.893 176.138 134.46 176.332 134.984C176.526 135.507 176.826 135.93 177.23 136.251C177.635 136.573 178.151 136.733 178.777 136.733ZM186.466 132.306V137.804H185.062V128.665H186.419V130.093H186.538C186.752 129.629 187.077 129.256 187.514 128.974C187.95 128.689 188.513 128.546 189.203 128.546C189.822 128.546 190.364 128.673 190.828 128.927C191.292 129.177 191.653 129.557 191.911 130.069C192.168 130.577 192.297 131.219 192.297 131.997V137.804H190.893V132.092C190.893 131.374 190.707 130.815 190.334 130.414C189.961 130.01 189.449 129.807 188.799 129.807C188.351 129.807 187.95 129.905 187.597 130.099C187.248 130.293 186.972 130.577 186.77 130.95C186.568 131.323 186.466 131.775 186.466 132.306Z" fill="#BDF3FF"/>
<path d="M118.557 48.4826L137.084 54.2708C137.601 54.4321 138.052 54.7544 138.373 55.1905C138.693 55.6267 138.866 56.1539 138.866 56.6953V61.176H143.943C144.617 61.176 145.262 61.4435 145.739 61.9196C146.215 62.3957 146.482 63.0414 146.482 63.7147V68.7921H113.479V63.7147C113.479 63.0414 113.747 62.3957 114.223 61.9196C114.699 61.4435 115.345 61.176 116.018 61.176H133.789V58.5612L118.557 53.7986L103.324 58.5612V77.3576C103.324 78.9119 103.68 80.4455 104.366 81.8403C105.052 83.2351 106.049 84.4539 107.28 85.4027L107.76 85.748L118.557 93.1127L128.158 86.5629H116.018C115.345 86.5629 114.699 86.2954 114.223 85.8193C113.747 85.3433 113.479 84.6975 113.479 84.0242V73.8695H146.482V84.0242C146.482 84.6975 146.215 85.3433 145.739 85.8193C145.262 86.2954 144.617 86.5629 143.943 86.5629L135.769 86.5654C134.786 87.8602 133.593 89.0026 132.215 89.9419L118.557 99.2563L104.898 89.9444C102.848 88.5468 101.171 86.6695 100.012 84.4759C98.8526 82.2823 98.2468 79.8387 98.2471 77.3576V56.6953C98.2474 56.1544 98.4204 55.6277 98.741 55.1921C99.0616 54.7564 99.5129 54.4345 100.029 54.2734L118.557 48.4826Z" fill="url(#paint2_linear_123_703)"/>
<defs>
<filter id="filter0_f_123_703" x="13.3281" y="32.9714" width="190.402" height="180.501" filterUnits="userSpaceOnUse" color-interpolation-filters="sRGB">
<feFlood flood-opacity="0" result="BackgroundImageFix"/>
<feBlend mode="normal" in="SourceGraphic" in2="BackgroundImageFix" result="shape"/>
<feGaussianBlur stdDeviation="22.8482" result="effect1_foregroundBlur_123_703"/>
</filter>
<filter id="filter1_b_123_703" x="-38.0803" y="-37.3251" width="318.351" height="250.568" filterUnits="userSpaceOnUse" color-interpolation-filters="sRGB">
<feFlood flood-opacity="0" result="BackgroundImageFix"/>
<feGaussianBlur in="BackgroundImageFix" stdDeviation="19.0402"/>
<feComposite in2="SourceAlpha" operator="in" result="effect1_backgroundBlur_123_703"/>
<feBlend mode="normal" in="SourceGraphic" in2="effect1_backgroundBlur_123_703" result="shape"/>
</filter>
<linearGradient id="paint0_linear_123_703" x1="121.095" y1="-52.0648" x2="121.095" y2="253.503" gradientUnits="userSpaceOnUse">
<stop stop-color="white" stop-opacity="0.03"/>
<stop offset="1" stop-color="white" stop-opacity="0"/>
</linearGradient>
<linearGradient id="paint1_linear_123_703" x1="268.108" y1="175.163" x2="19.1085" y2="-65.0118" gradientUnits="userSpaceOnUse">
<stop stop-color="#F5FBF2" stop-opacity="0.44"/>
<stop offset="1" stop-color="#F5FBF2" stop-opacity="0"/>
</linearGradient>
<linearGradient id="paint2_linear_123_703" x1="122.365" y1="48.4826" x2="187.277" y2="65.9355" gradientUnits="userSpaceOnUse">
<stop stop-color="#FD5A14"/>
<stop offset="0.609375" stop-color="#FFF06B" stop-opacity="0.59"/>
<stop offset="1" stop-color="#060ED0" stop-opacity="0.28"/>
</linearGradient>
<clipPath id="clip0_123_703">
<rect width="99.0088" height="89.1079" fill="white" transform="translate(59.0244 78.6678)"/>
</clipPath>
</defs>
</svg>
