<svg width="183" height="46" viewBox="0 0 183 46" fill="none" xmlns="http://www.w3.org/2000/svg">
<g filter="url(#filter0_b_123_624)">
<rect x="2" y="2" width="179" height="42" rx="5" fill="black" fill-opacity="0.4"/>
<rect x="1" y="1" width="181" height="44" rx="6" stroke="url(#paint0_linear_123_624)" stroke-width="2"/>
</g>
<path d="M53.7387 28.105C53.0387 28.105 52.4087 27.985 51.8487 27.745C51.2887 27.495 50.8487 27.145 50.5287 26.695C50.2087 26.245 50.0487 25.72 50.0487 25.12H51.8787C51.9187 25.57 52.0937 25.94 52.4037 26.23C52.7237 26.52 53.1687 26.665 53.7387 26.665C54.3287 26.665 54.7887 26.525 55.1187 26.245C55.4487 25.955 55.6137 25.585 55.6137 25.135C55.6137 24.785 55.5087 24.5 55.2987 24.28C55.0987 24.06 54.8437 23.89 54.5337 23.77C54.2337 23.65 53.8137 23.52 53.2737 23.38C52.5937 23.2 52.0387 23.02 51.6087 22.84C51.1887 22.65 50.8287 22.36 50.5287 21.97C50.2287 21.58 50.0787 21.06 50.0787 20.41C50.0787 19.81 50.2287 19.285 50.5287 18.835C50.8287 18.385 51.2487 18.04 51.7887 17.8C52.3287 17.56 52.9537 17.44 53.6637 17.44C54.6737 17.44 55.4987 17.695 56.1387 18.205C56.7887 18.705 57.1487 19.395 57.2187 20.275H55.3287C55.2987 19.895 55.1187 19.57 54.7887 19.3C54.4587 19.03 54.0237 18.895 53.4837 18.895C52.9937 18.895 52.5937 19.02 52.2837 19.27C51.9737 19.52 51.8187 19.88 51.8187 20.35C51.8187 20.67 51.9137 20.935 52.1037 21.145C52.3037 21.345 52.5537 21.505 52.8537 21.625C53.1537 21.745 53.5637 21.875 54.0837 22.015C54.7737 22.205 55.3337 22.395 55.7637 22.585C56.2037 22.775 56.5737 23.07 56.8737 23.47C57.1837 23.86 57.3387 24.385 57.3387 25.045C57.3387 25.575 57.1937 26.075 56.9037 26.545C56.6237 27.015 56.2087 27.395 55.6587 27.685C55.1187 27.965 54.4787 28.105 53.7387 28.105ZM66.9314 23.665C66.9314 23.975 66.9114 24.255 66.8714 24.505H60.5564C60.6064 25.165 60.8514 25.695 61.2914 26.095C61.7314 26.495 62.2714 26.695 62.9114 26.695C63.8314 26.695 64.4814 26.31 64.8614 25.54H66.7064C66.4564 26.3 66.0014 26.925 65.3414 27.415C64.6914 27.895 63.8814 28.135 62.9114 28.135C62.1214 28.135 61.4114 27.96 60.7814 27.61C60.1614 27.25 59.6714 26.75 59.3114 26.11C58.9614 25.46 58.7864 24.71 58.7864 23.86C58.7864 23.01 58.9564 22.265 59.2964 21.625C59.6464 20.975 60.1314 20.475 60.7514 20.125C61.3814 19.775 62.1014 19.6 62.9114 19.6C63.6914 19.6 64.3864 19.77 64.9964 20.11C65.6064 20.45 66.0814 20.93 66.4214 21.55C66.7614 22.16 66.9314 22.865 66.9314 23.665ZM65.1464 23.125C65.1364 22.495 64.9114 21.99 64.4714 21.61C64.0314 21.23 63.4864 21.04 62.8364 21.04C62.2464 21.04 61.7414 21.23 61.3214 21.61C60.9014 21.98 60.6514 22.485 60.5714 23.125H65.1464ZM72.7843 19.6C73.4343 19.6 74.0143 19.735 74.5243 20.005C75.0443 20.275 75.4493 20.675 75.7393 21.205C76.0293 21.735 76.1743 22.375 76.1743 23.125V28H74.4793V23.38C74.4793 22.64 74.2943 22.075 73.9243 21.685C73.5543 21.285 73.0493 21.085 72.4093 21.085C71.7693 21.085 71.2593 21.285 70.8793 21.685C70.5093 22.075 70.3243 22.64 70.3243 23.38V28H68.6143V19.735H70.3243V20.68C70.6043 20.34 70.9593 20.075 71.3893 19.885C71.8293 19.695 72.2943 19.6 72.7843 19.6ZM77.7855 23.83C77.7855 23 77.9555 22.265 78.2955 21.625C78.6455 20.985 79.1155 20.49 79.7055 20.14C80.3055 19.78 80.9705 19.6 81.7005 19.6C82.2405 19.6 82.7705 19.72 83.2905 19.96C83.8205 20.19 84.2405 20.5 84.5505 20.89V16.9H86.2755V28H84.5505V26.755C84.2705 27.155 83.8805 27.485 83.3805 27.745C82.8905 28.005 82.3255 28.135 81.6855 28.135C80.9655 28.135 80.3055 27.955 79.7055 27.595C79.1155 27.225 78.6455 26.715 78.2955 26.065C77.9555 25.405 77.7855 24.66 77.7855 23.83ZM84.5505 23.86C84.5505 23.29 84.4305 22.795 84.1905 22.375C83.9605 21.955 83.6555 21.635 83.2755 21.415C82.8955 21.195 82.4855 21.085 82.0455 21.085C81.6055 21.085 81.1955 21.195 80.8155 21.415C80.4355 21.625 80.1255 21.94 79.8855 22.36C79.6555 22.77 79.5405 23.26 79.5405 23.83C79.5405 24.4 79.6555 24.9 79.8855 25.33C80.1255 25.76 80.4355 26.09 80.8155 26.32C81.2055 26.54 81.6155 26.65 82.0455 26.65C82.4855 26.65 82.8955 26.54 83.2755 26.32C83.6555 26.1 83.9605 25.78 84.1905 25.36C84.4305 24.93 84.5505 24.43 84.5505 23.86ZM94.128 18.955V22.015H97.728V23.41H94.128V26.605H98.178V28H92.418V17.56H98.178V18.955H94.128ZM110.289 19.6C110.939 19.6 111.519 19.735 112.029 20.005C112.549 20.275 112.954 20.675 113.244 21.205C113.544 21.735 113.694 22.375 113.694 23.125V28H111.999V23.38C111.999 22.64 111.814 22.075 111.444 21.685C111.074 21.285 110.569 21.085 109.929 21.085C109.289 21.085 108.779 21.285 108.399 21.685C108.029 22.075 107.844 22.64 107.844 23.38V28H106.149V23.38C106.149 22.64 105.964 22.075 105.594 21.685C105.224 21.285 104.719 21.085 104.079 21.085C103.439 21.085 102.929 21.285 102.549 21.685C102.179 22.075 101.994 22.64 101.994 23.38V28H100.284V19.735H101.994V20.68C102.274 20.34 102.629 20.075 103.059 19.885C103.489 19.695 103.949 19.6 104.439 19.6C105.099 19.6 105.689 19.74 106.209 20.02C106.729 20.3 107.129 20.705 107.409 21.235C107.659 20.735 108.049 20.34 108.579 20.05C109.109 19.75 109.679 19.6 110.289 19.6ZM115.3 23.83C115.3 23 115.47 22.265 115.81 21.625C116.16 20.985 116.63 20.49 117.22 20.14C117.82 19.78 118.48 19.6 119.2 19.6C119.85 19.6 120.415 19.73 120.895 19.99C121.385 20.24 121.775 20.555 122.065 20.935V19.735H123.79V28H122.065V26.77C121.775 27.16 121.38 27.485 120.88 27.745C120.38 28.005 119.81 28.135 119.17 28.135C118.46 28.135 117.81 27.955 117.22 27.595C116.63 27.225 116.16 26.715 115.81 26.065C115.47 25.405 115.3 24.66 115.3 23.83ZM122.065 23.86C122.065 23.29 121.945 22.795 121.705 22.375C121.475 21.955 121.17 21.635 120.79 21.415C120.41 21.195 120 21.085 119.56 21.085C119.12 21.085 118.71 21.195 118.33 21.415C117.95 21.625 117.64 21.94 117.4 22.36C117.17 22.77 117.055 23.26 117.055 23.83C117.055 24.4 117.17 24.9 117.4 25.33C117.64 25.76 117.95 26.09 118.33 26.32C118.72 26.54 119.13 26.65 119.56 26.65C120 26.65 120.41 26.54 120.79 26.32C121.17 26.1 121.475 25.78 121.705 25.36C121.945 24.93 122.065 24.43 122.065 23.86ZM126.906 18.64C126.596 18.64 126.336 18.535 126.126 18.325C125.916 18.115 125.811 17.855 125.811 17.545C125.811 17.235 125.916 16.975 126.126 16.765C126.336 16.555 126.596 16.45 126.906 16.45C127.206 16.45 127.461 16.555 127.671 16.765C127.881 16.975 127.986 17.235 127.986 17.545C127.986 17.855 127.881 18.115 127.671 18.325C127.461 18.535 127.206 18.64 126.906 18.64ZM127.746 19.735V28H126.036V19.735H127.746ZM131.701 16.9V28H129.991V16.9H131.701Z" fill="#FFFAF9"/>
<defs>
<filter id="filter0_b_123_624" x="-10" y="-10" width="203" height="66" filterUnits="userSpaceOnUse" color-interpolation-filters="sRGB">
<feFlood flood-opacity="0" result="BackgroundImageFix"/>
<feGaussianBlur in="BackgroundImageFix" stdDeviation="5"/>
<feComposite in2="SourceAlpha" operator="in" result="effect1_backgroundBlur_123_624"/>
<feBlend mode="normal" in="SourceGraphic" in2="effect1_backgroundBlur_123_624" result="shape"/>
</filter>
<linearGradient id="paint0_linear_123_624" x1="184.134" y1="44" x2="-3.11206" y2="8.81982" gradientUnits="userSpaceOnUse">
<stop stop-color="#AB2FFE"/>
<stop offset="0.96875" stop-color="#40AFFD"/>
</linearGradient>
</defs>
</svg>
