<svg width="183" height="46" viewBox="0 0 183 46" fill="none" xmlns="http://www.w3.org/2000/svg">
<g filter="url(#filter0_b_123_776)">
<rect x="2" y="2" width="179" height="42" rx="5" fill="black" fill-opacity="0.4"/>
<rect x="1" y="1" width="181" height="44" rx="6" stroke="url(#paint0_linear_123_776)" stroke-width="2"/>
</g>
<path d="M32.4035 17.575L28.4885 28H26.5085L22.5785 17.575H24.4085L27.4985 26.245L30.6035 17.575H32.4035ZM34.7035 18.64C34.3935 18.64 34.1335 18.535 33.9235 18.325C33.7135 18.115 33.6085 17.855 33.6085 17.545C33.6085 17.235 33.7135 16.975 33.9235 16.765C34.1335 16.555 34.3935 16.45 34.7035 16.45C35.0035 16.45 35.2585 16.555 35.4685 16.765C35.6785 16.975 35.7835 17.235 35.7835 17.545C35.7835 17.855 35.6785 18.115 35.4685 18.325C35.2585 18.535 35.0035 18.64 34.7035 18.64ZM35.5435 19.735V28H33.8335V19.735H35.5435ZM45.3636 23.665C45.3636 23.975 45.3436 24.255 45.3036 24.505H38.9886C39.0386 25.165 39.2836 25.695 39.7236 26.095C40.1636 26.495 40.7036 26.695 41.3436 26.695C42.2636 26.695 42.9136 26.31 43.2936 25.54H45.1386C44.8886 26.3 44.4336 26.925 43.7736 27.415C43.1236 27.895 42.3136 28.135 41.3436 28.135C40.5536 28.135 39.8436 27.96 39.2136 27.61C38.5936 27.25 38.1036 26.75 37.7436 26.11C37.3936 25.46 37.2186 24.71 37.2186 23.86C37.2186 23.01 37.3886 22.265 37.7286 21.625C38.0786 20.975 38.5636 20.475 39.1836 20.125C39.8136 19.775 40.5336 19.6 41.3436 19.6C42.1236 19.6 42.8186 19.77 43.4286 20.11C44.0386 20.45 44.5136 20.93 44.8536 21.55C45.1936 22.16 45.3636 22.865 45.3636 23.665ZM43.5786 23.125C43.5686 22.495 43.3436 21.99 42.9036 21.61C42.4636 21.23 41.9186 21.04 41.2686 21.04C40.6786 21.04 40.1736 21.23 39.7536 21.61C39.3336 21.98 39.0836 22.485 39.0036 23.125H43.5786ZM58.1464 19.735L55.5814 28H53.7814L52.1164 21.895L50.4514 28H48.6514L46.0714 19.735H47.8114L49.5364 26.38L51.2914 19.735H53.0764L54.7564 26.35L56.4664 19.735H58.1464ZM69.6058 25.87H65.2408L64.4908 28H62.7058L66.4408 17.56H68.4208L72.1558 28H70.3558L69.6058 25.87ZM69.1258 24.475L67.4308 19.63L65.7208 24.475H69.1258ZM75.4898 16.9V28H73.7798V16.9H75.4898ZM79.4449 16.9V28H77.7349V16.9H79.4449ZM85.0164 22.765C85.0164 21.745 85.2514 20.83 85.7214 20.02C86.2014 19.21 86.8464 18.58 87.6564 18.13C88.4764 17.67 89.3714 17.44 90.3414 17.44C91.4514 17.44 92.4364 17.715 93.2964 18.265C94.1664 18.805 94.7964 19.575 95.1864 20.575H93.1314C92.8614 20.025 92.4864 19.615 92.0064 19.345C91.5264 19.075 90.9714 18.94 90.3414 18.94C89.6514 18.94 89.0364 19.095 88.4964 19.405C87.9564 19.715 87.5314 20.16 87.2214 20.74C86.9214 21.32 86.7714 21.995 86.7714 22.765C86.7714 23.535 86.9214 24.21 87.2214 24.79C87.5314 25.37 87.9564 25.82 88.4964 26.14C89.0364 26.45 89.6514 26.605 90.3414 26.605C90.9714 26.605 91.5264 26.47 92.0064 26.2C92.4864 25.93 92.8614 25.52 93.1314 24.97H95.1864C94.7964 25.97 94.1664 26.74 93.2964 27.28C92.4364 27.82 91.4514 28.09 90.3414 28.09C89.3614 28.09 88.4664 27.865 87.6564 27.415C86.8464 26.955 86.2014 26.32 85.7214 25.51C85.2514 24.7 85.0164 23.785 85.0164 22.765ZM100.773 28.135C99.993 28.135 99.288 27.96 98.658 27.61C98.028 27.25 97.533 26.75 97.173 26.11C96.813 25.46 96.633 24.71 96.633 23.86C96.633 23.02 96.818 22.275 97.188 21.625C97.558 20.975 98.063 20.475 98.703 20.125C99.343 19.775 100.058 19.6 100.848 19.6C101.638 19.6 102.353 19.775 102.993 20.125C103.633 20.475 104.138 20.975 104.508 21.625C104.878 22.275 105.063 23.02 105.063 23.86C105.063 24.7 104.873 25.445 104.493 26.095C104.113 26.745 103.593 27.25 102.933 27.61C102.283 27.96 101.563 28.135 100.773 28.135ZM100.773 26.65C101.213 26.65 101.623 26.545 102.003 26.335C102.393 26.125 102.708 25.81 102.948 25.39C103.188 24.97 103.308 24.46 103.308 23.86C103.308 23.26 103.193 22.755 102.963 22.345C102.733 21.925 102.428 21.61 102.048 21.4C101.668 21.19 101.258 21.085 100.818 21.085C100.378 21.085 99.968 21.19 99.588 21.4C99.218 21.61 98.923 21.925 98.703 22.345C98.483 22.755 98.373 23.26 98.373 23.86C98.373 24.75 98.598 25.44 99.048 25.93C99.508 26.41 100.083 26.65 100.773 26.65ZM108.463 16.9V28H106.753V16.9H108.463ZM112.418 16.9V28H110.708V16.9H112.418ZM122.239 23.665C122.239 23.975 122.219 24.255 122.179 24.505H115.864C115.914 25.165 116.159 25.695 116.599 26.095C117.039 26.495 117.579 26.695 118.219 26.695C119.139 26.695 119.789 26.31 120.169 25.54H122.014C121.764 26.3 121.309 26.925 120.649 27.415C119.999 27.895 119.189 28.135 118.219 28.135C117.429 28.135 116.719 27.96 116.089 27.61C115.469 27.25 114.979 26.75 114.619 26.11C114.269 25.46 114.094 24.71 114.094 23.86C114.094 23.01 114.264 22.265 114.604 21.625C114.954 20.975 115.439 20.475 116.059 20.125C116.689 19.775 117.409 19.6 118.219 19.6C118.999 19.6 119.694 19.77 120.304 20.11C120.914 20.45 121.389 20.93 121.729 21.55C122.069 22.16 122.239 22.865 122.239 23.665ZM120.454 23.125C120.444 22.495 120.219 21.99 119.779 21.61C119.339 21.23 118.794 21.04 118.144 21.04C117.554 21.04 117.049 21.23 116.629 21.61C116.209 21.98 115.959 22.485 115.879 23.125H120.454ZM123.351 23.86C123.351 23.01 123.521 22.265 123.861 21.625C124.211 20.975 124.691 20.475 125.301 20.125C125.911 19.775 126.611 19.6 127.401 19.6C128.401 19.6 129.226 19.84 129.876 20.32C130.536 20.79 130.981 21.465 131.211 22.345H129.366C129.216 21.935 128.976 21.615 128.646 21.385C128.316 21.155 127.901 21.04 127.401 21.04C126.701 21.04 126.141 21.29 125.721 21.79C125.311 22.28 125.106 22.97 125.106 23.86C125.106 24.75 125.311 25.445 125.721 25.945C126.141 26.445 126.701 26.695 127.401 26.695C128.391 26.695 129.046 26.26 129.366 25.39H131.211C130.971 26.23 130.521 26.9 129.861 27.4C129.201 27.89 128.381 28.135 127.401 28.135C126.611 28.135 125.911 27.96 125.301 27.61C124.691 27.25 124.211 26.75 123.861 26.11C123.521 25.46 123.351 24.71 123.351 23.86ZM134.911 21.13V25.705C134.911 26.015 134.981 26.24 135.121 26.38C135.271 26.51 135.521 26.575 135.871 26.575H136.921V28H135.571C134.801 28 134.211 27.82 133.801 27.46C133.391 27.1 133.186 26.515 133.186 25.705V21.13H132.211V19.735H133.186V17.68H134.911V19.735H136.921V21.13H134.911ZM142.082 28.135C141.302 28.135 140.597 27.96 139.967 27.61C139.337 27.25 138.842 26.75 138.482 26.11C138.122 25.46 137.942 24.71 137.942 23.86C137.942 23.02 138.127 22.275 138.497 21.625C138.867 20.975 139.372 20.475 140.012 20.125C140.652 19.775 141.367 19.6 142.157 19.6C142.947 19.6 143.662 19.775 144.302 20.125C144.942 20.475 145.447 20.975 145.817 21.625C146.187 22.275 146.372 23.02 146.372 23.86C146.372 24.7 146.182 25.445 145.802 26.095C145.422 26.745 144.902 27.25 144.242 27.61C143.592 27.96 142.872 28.135 142.082 28.135ZM142.082 26.65C142.522 26.65 142.932 26.545 143.312 26.335C143.702 26.125 144.017 25.81 144.257 25.39C144.497 24.97 144.617 24.46 144.617 23.86C144.617 23.26 144.502 22.755 144.272 22.345C144.042 21.925 143.737 21.61 143.357 21.4C142.977 21.19 142.567 21.085 142.127 21.085C141.687 21.085 141.277 21.19 140.897 21.4C140.527 21.61 140.232 21.925 140.012 22.345C139.792 22.755 139.682 23.26 139.682 23.86C139.682 24.75 139.907 25.44 140.357 25.93C140.817 26.41 141.392 26.65 142.082 26.65ZM149.772 20.935C150.022 20.515 150.352 20.19 150.762 19.96C151.182 19.72 151.677 19.6 152.247 19.6V21.37H151.812C151.142 21.37 150.632 21.54 150.282 21.88C149.942 22.22 149.772 22.81 149.772 23.65V28H148.062V19.735H149.772V20.935ZM156.819 28.135C156.169 28.135 155.584 28.02 155.064 27.79C154.554 27.55 154.149 27.23 153.849 26.83C153.549 26.42 153.389 25.965 153.369 25.465H155.139C155.169 25.815 155.334 26.11 155.634 26.35C155.944 26.58 156.329 26.695 156.789 26.695C157.269 26.695 157.639 26.605 157.899 26.425C158.169 26.235 158.304 25.995 158.304 25.705C158.304 25.395 158.154 25.165 157.854 25.015C157.564 24.865 157.099 24.7 156.459 24.52C155.839 24.35 155.334 24.185 154.944 24.025C154.554 23.865 154.214 23.62 153.924 23.29C153.644 22.96 153.504 22.525 153.504 21.985C153.504 21.545 153.634 21.145 153.894 20.785C154.154 20.415 154.524 20.125 155.004 19.915C155.494 19.705 156.054 19.6 156.684 19.6C157.624 19.6 158.379 19.84 158.949 20.32C159.529 20.79 159.839 21.435 159.879 22.255H158.169C158.139 21.885 157.989 21.59 157.719 21.37C157.449 21.15 157.084 21.04 156.624 21.04C156.174 21.04 155.829 21.125 155.589 21.295C155.349 21.465 155.229 21.69 155.229 21.97C155.229 22.19 155.309 22.375 155.469 22.525C155.629 22.675 155.824 22.795 156.054 22.885C156.284 22.965 156.624 23.07 157.074 23.2C157.674 23.36 158.164 23.525 158.544 23.695C158.934 23.855 159.269 24.095 159.549 24.415C159.829 24.735 159.974 25.16 159.984 25.69C159.984 26.16 159.854 26.58 159.594 26.95C159.334 27.32 158.964 27.61 158.484 27.82C158.014 28.03 157.459 28.135 156.819 28.135Z" fill="#FFFAF9"/>
<defs>
<filter id="filter0_b_123_776" x="-10" y="-10" width="203" height="66" filterUnits="userSpaceOnUse" color-interpolation-filters="sRGB">
<feFlood flood-opacity="0" result="BackgroundImageFix"/>
<feGaussianBlur in="BackgroundImageFix" stdDeviation="5"/>
<feComposite in2="SourceAlpha" operator="in" result="effect1_backgroundBlur_123_776"/>
<feBlend mode="normal" in="SourceGraphic" in2="effect1_backgroundBlur_123_776" result="shape"/>
</filter>
<linearGradient id="paint0_linear_123_776" x1="184.134" y1="44" x2="-3.11206" y2="8.81982" gradientUnits="userSpaceOnUse">
<stop stop-color="#AB2FFE"/>
<stop offset="0.96875" stop-color="#40AFFD"/>
</linearGradient>
</defs>
</svg>
